<?xml version="1.0" encoding="UTF-8"?>
<svg version="1.1" viewBox="0 0 2048 896" width="1280" height="1280" xmlns="http://www.w3.org/2000/svg">
<path transform="translate(0)" d="m0 0h2048v896h-2048z" fill="#FDFDFD"/>
<path transform="translate(1374,591)" d="m0 0h37l24 4 11 4 8 7 5 10 2 7 9-3 12-9 17-12 11-4h12l9 3 9 8 4 8 2 23 1 43 1 2h2l6-18 7-16 7-11 8-10 9-9 15-11 17-8 21-6 12-2h30l20 4 19 9 10 7 12 11 4 6 1 3v15l-6 21-6 15-7 9-10 4-13-1-12-5-7-9-5-12-6-7-6-3-5-1h-11l-12 4-7 5h-2v2l-5 5-4 8-2 9v16l4 13 5 9 7 8 10 7 7 3 10 2h16l10-2 12-5 15-10 9-4h15l7 3 6 4 6 7 3 9-2 13-6 12-14 15-12 11-18 11-12 5-21 5h-26l-12-2-15-4-13-5-15-9-14-11-8-8v-2h-2l-7-10-7-11-9-19-3-1-1 5v21l10 15 1 3v19l-6 9-9 6-5 1-25 1-36-1-11-4-7-6-4-8-1-6-8 6h-2v2l-13 9-10 5-9 3-10 2-12 1h-19l-17-2-25-5-10-3-8-6-6-5-8 1-17 9-13 6-6 2-12 1-14-3-5-2h-8l-15 5-16 3h-21l-23-6-14-7-11-7v-2l-6-3v-2l-4-2-10-11-7-11-4-12-2-15v-61l-2-13-7-8-5-7-1-4v-10l4-10 6-8 3-3h2v-2l11-9 14-10 10-5 3-1h21l9 6 5 8 2 9 1 111 2 14 4 6 7 4 5 1h15l16-4 4-2 2-3 1-5 1-79-1-13-3-6-4-5v-2h-2l-4-10v-10l2-9 5-6 8-4 11-2h37l11 2 7 6 5 11 3 16 2 21 1 5 2-3 2-12 5-13 6-10 10-9 16-9 15-5z" fill="#C1BCBE"/>
<path transform="translate(184,234)" d="m0 0 2 1-1 4-8 13-10 19-10 23-7 21-7 26-4 25-2 26v27l3 29 4 20 6 22 8 21 12 28 6 10 9 17 10 14 12 16 10 13 12 13 8 7 10 9 12 9 15 11 17 10 16 9v4h3l9-1 9 3h8l8-7 9-11 9-9 18-24 8-13 5-12 5-17 5-21 4-10 6-20 1-4-3-1 1-6 3-14 3-30 11-24 7-22 5-6 6-4 9-3h11l15-8 12-2 15 1 11 4 8 6 5 6 6 19v7l-3 10 1 4 2 3v8l-5 8-5 12-3 4h-10l-8-2h-5l-7 6-6 9-3 14 2 6 5 2 11 6 5 3 11 15 7 8 10 8 10 7 5-1 9-8 16-12 11-9 13-12 7-7 8-6 2-1h13l3-1 2-5 2-4h18l-1 5-3 7 7-1 1 2-5 6-8 3h-21l-10 7-3 1v2h-2l-2 4-10 11-7 8-9 10-21 21-8 5h-8l-22-12-19-11-1 7-7 6-5 1v9l-5 19v6l5 2h40l17 2 15 3 10 5 3 4 2 6v7l-3 8-8 7 9-5 10-7 17-11 11-7h2l-1 5-10 14-8 10-14 15-10 10-6 5v8l9 36 7 19 6 15 4 13 3 14 1 35 3 11 2 5v5l-2 2h-10l-8-3-4-5-6-18-8-16v-6l6-13v-10l-7-21-13-25-8-11-5-12-2-10-1-14 3-5 7-6 8-6-16 10-16 12-11 10-8 7-10 9 4-2 16-13 12-11 5-4h3v26l-9 7-13 8-19 9-12 5h-7l2-4 7-7 5-8-5 5-13 14-7 11-11 14-17 17-17 11-14 8-12 8-7 6-8 10-7 1-4-5-2-4-1-12 2-7 9-10 8-9 11-17 3-3 20-1 10-6 5-5 12-14 10-13 14-23 8-12 11-13 11-11 1-2-8 7-11 11-3 2-56-1-5-4-5-12-1-5v-9l5-16 6-12 11-14 4-6 3-7 4-17 1-5v-25l-2-12-2-4-2-1-3 11-14 39-8 19-7 10h-2l-2 5-7 6-7 8-22 22-8 7-10 9-6 2 17 2 4 2 44 8 65 1-2 5-6 8h-2l-2 5-12 16-13 17-13 18-5 6-4 1-17 1v2l-4 2-10 1h-31l-30-3-33-7-20-6-19-7-11-5-17-8-15-9-18-12-18-14-12-11-8-7-9-9-7-8-11-13-8-12-7-10-12-21-10-21-10-26-5-18-6-24-3-16-2-17-1-19v-12l1-21 5-30 8-31 6-18 9-22 10-20 14-23 7-10 11-14 11-12 9-10 13-12 10-8 11-8z" fill="#FDFDFD"/>
<path transform="translate(895,176)" d="m0 0h13l17 5 15 7 9 4 8 4 2 7 7-8 12-6h20l11 4 5 5 7 8 1 7-5 22-1 8v16l14-20 12-14 9-10 11-9 10-8 17-10 12-5 14-3h16l11 3 8 4v2l5 2 5 3 4 5 5 5 5 4 1 4h2l1 3v17l-1 6h-2v9l-1 3h-2v8l-3 5-3 8v2h-2v4l-2 1-2 5 1 3h-2v2h-2l-2 3-3 1-2 4-10 12-11 9-11 8-13 8-19 10-14 7 1 9 4 1 14-5 7-1 5-4 6-3 9-10 7-5 4-5 5-5 6-5 9 1 11 9 4 4 5-23 4-12 5-12 8-16 5-9 9-13 4-7 3-3 4-5 4-4 3-5 12-11 5-5 9-7 5-2v-2l13-7 14-2h15l10 6 9 7 5 5 4 2 21 3 19 8 11 10 3 6v9l-4 9-12 28-10 27-6 21-1 1-2 10v30l7 8 5 6 2 1v11l-7 6-16 8-12 4h-23l-10-4-8-7-6-8-4-10v-2l-8 7-12 12-15 9-13 4h-14l-12-5-12-11-9-13-4-12-2-9-1-1-1-8-8 11-7 7-7 8-10 9-14 11-11 7-15 8-14 5h-19l-1-1-9-2-15-6-14-10-9-9-9-14-4-9-4-17v-27l2-6 1-5-6 4h-6l-10-5-9-7-10-9-8-8-5 3-12 11-10 12-9 14-7 16-8 24-9 36-5 11-7 3-14-1-15-6-14-9-8-7-6-9-1-2v-9l8-33 12-41 5-16 3-9 9-26 14-35 8-16 6-10 10-12z" fill="#FB6E69"/>
<path transform="translate(652,80)" d="m0 0h41l21 3 24 7 18 8 16 10 13 10 11 11 9 12 8 13 7 16 5 18 3 19v27l-3 22-5 21-8 22-7 16-12 21-9 12-8 10-9 10-12 12-11 9-17 12-10 6-18 8-24 8-18 3-12 1h-17l-22-3-15-5-16-8-11-8-10-9-8-10-9-15 1-5 15-37 19-48 19-49 13-34 18-49 7-20-9 6-9 7-7 7-11 15-12 23-8 21-2 5-6-2-12-7-9-8-7-11-4-10v-8l5-15 6-11 8-11 11-12 14-11 13-8 14-6 15-5 17-4z" fill="#0888F0"/>
<path transform="translate(1373,598)" d="m0 0h41l18 3 12 5 5 4 4 9 2 12 1 19-2 10-6 8-6 4-3 1h-11l-9-4-5-5-8-9-8-4-6-2h-16l-2 4-1 4 4 5 16 9 21 12 21 14 11 10 8 13 5 14 1 4v24l-5 15-7 12-12 12-11 7-16 6-18 3h-21l-23-3-21-5-10-5-4-5-2-5-2-10-4 6-9 6-23 12-13 6-3 1h-11l-11-4-4-3-9 1-17 6-15 3h-19l-16-4-12-5-15-9-13-12-8-10-7-15-3-13-1-16-1-66-11-10-3-7v-7l6-10 9-9 13-10 14-10 10-4h12l6 3 6 8 2 7 1 81v31l1 12 4 8 5 4 8 4 12 2h11l16-4 8-5 3-9v-99l-3-5-5-4-4-7-1-4v-8l3-8 4-4 10-3h45l5 3 4 5 4 13 2 16 1 26 1 86 3 5 8 6 4-10 8-7 11-4h7l8 4 10 8 12 6 17 4h10l5-3 2-4v-5l-8-6-28-15-19-11-10-8-11-11-8-14-4-12-1-6v-18l3-11 6-12 8-9 10-7 13-6 13-4z" fill="#F2382F"/>
<path transform="translate(175,225)" d="m0 0h15l5 4 1 2v11l-4 10-8 14-8 16-7 15-10 30-6 24-4 28-1 15v19l3 29 3 17 9 31 13 32 8 16 10 19 12 17 9 12 10 13 7 7 7 8 8 7 9 8 16 12 18 12 17 10 14 7h8l6-4 15-16 9-11 12-16 8-14 9-27 5-20 5-16 3-19 4-25 2-19 5-16 5-11 9-25 6-8 10-6 12-3 10-2 13-5 8-2h27l13 4 10 6 8 9 5 16 1 6v42l-5 12-7 13-5 4-4 1h-15l-7 2-4 5-1 6 17 11 10 12 6 8 8 7 5 3 6-1 16-12 13-11 10-9 10-10 6-5-1-21-3-6-3-5-1-6v-8l3-5 9-4 6-4 4-5 5-5 5-1h8l6 3 7 9 6 3 8 3 3 5v13l-4 7-4 5v9l4 6 5 14v9l-2 7-7 6-5 2-19 1-9 3-10 9-10 11-9 11-30 30-8 4-5 1h-14l-9-3-16-9-2-1h-7l-5 4-1 2v11l33 1 23 3 16 4 9 5 5 8v5l16-10 3-1h13l5 2 1 1v17l-5 10-13 16-11 12-15 15-1 2 1 11 8 27 11 27 6 23 1 6 1 31 4 18v16l-3 5-7 3h-15l-9-2-7-5-5-10-6-16-5-10-1-4v-18l3-9v-10l-8-19-11-20-5-6-7 1-24 12-14 6-12 3-8 9-9 12-18 18-15 10-17 10-13 9-14 14-5 2h-15l-7-4-3-5-2-16 1-17 6-10 5-6 7-5v-1h-30l-23-2-22-4-25-6-30-10-24-11-18-10-21-14-12-9-11-9-13-12-20-20-13-17-14-21-9-16-8-16-9-21-7-19-8-30-6-31-2-26v-26l2-27 5-28 8-31 9-25 10-22 12-22 16-24 10-13 11-12 7-8 7-7 8-7 14-12 7-5zm9 9-9 6-17 14-16 15-9 10-10 12-8 11-10 15-12 21-11 23-9 24-8 29-5 25-2 14-1 21v12l1 19 3 21 4 20 7 28 8 22 11 25 10 19 11 17 8 11 7 9 9 10 11 12 7 7 11 9 9 8 12 9 18 12 21 12 15 7 15 6 27 9 31 7 23 3 13 1h31l10-1 4-2v-2l17-1 5-2 10-13 10-14 20-26 4-6v-2l4-2 6-9v-2l-65-1-33-6-13-3-2-1-17-2 7-3 15-14 8-7 27-27 5-6v-2l3-1 7-11 10-25 14-40v-2l3 3 2 8 1 6v25l-3 14-3 10-5 10-9 11-7 11-6 17-1 4v9l4 13 4 6 3 2 56 1 10-9 10-10 2-1-7 8-9 9-10 13-14 23-11 16-12 14-5 6-7 6-7 4-20 1-6 7-6 10-9 11-8 8-3 5-1 11 2 8 4 6 1 1 7-1 12-14 15-10 11-6 21-14 18-18 13-18 6-8 10-11 5-5-6 9-8 8v2h7l27-12 11-6 14-10 1-1v-26l-4 1-15 13-9 8-9 7-3 1 16-15 11-9 7-6 14-10 13-8-8 6-9 8-1 7 2 16 4 12 6 10 6 9 11 21 7 21v10l-6 13 1 9 8 15 5 16 4 5 8 3h10l2-2-1-8-3-8-1-5-1-35-5-21-7-19-6-15-8-29-3-13v-8l15-14 10-10 7-8 10-13 7-11v-3l-5 2-19 12-24 16 5-5 4-6 1-4v-7l-4-9-6-4-9-3-17-3-11-1h-40l-5-2 1-9 4-16v-9l6-2 6-5 1-7 21 12 20 11h8l9-6 27-27 7-8 12-14 2-4h2v-2l4-2 9-6h21l8-3 5-6-1-2-7 1 4-9v-3h-18l-4 7v2l-7 1h-9l-6 4-12 11-7 7-11 9-10 8-17 13-5 4-4-1-17-12-8-8-7-10-5-7-18-10-3-1-2-8 3-12 7-10 6-5 9 1 4 1h10l5-8 5-12 3-4v-8l-3-4 1-5 2-8v-7l-7-21-7-7-12-6-12-2-15 1-10 4-9 5h-11l-11 4-7 6-4 8-5 17-9 20-2 4-3 30-3 14-1 6 3 1-9 30-4 11-5 21-6 18-6 11-10 14-7 9-8 10-9 9-9 11-5 4h-8l-9-3-9 1h-3v-4l-18-10-15-9-16-12-13-10-13-12-8-7-7-8-11-14-11-15-10-14-12-23-5-8-12-29-7-20-7-26-4-29-1-12v-27l2-26 4-25 7-26 7-21 8-18 8-16 8-15 5-7-1-4z" fill="#0297DD"/>
<path transform="translate(1442,186)" d="m0 0 10 3 12 5 12 7 13 11 2 2-1 7-10 21-12 21-11 15-18 27-3 7h2l2-4 8-12 14-19 9-11 11-12 24-24 15-11 16-8 8-2 12 1 14 5 10 6 7 6-1 8-8 19-8 14-4 5-4 7v2l8-10 10-13 4-5h2l1-3h2v-2l8-7 13-13 16-12 14-7 11-3h9l10 3 9 5v2h2l7 11-1 8-11 26-17 36-12 28-6 18-4 18v13l10-2 4-1h7l6 8 1 2v7l-5 5-13 8-12 5-4 1h-18l-12-4-9-8-6-11-4-13-1-6v-13l3-18 7-24 10-24 6-11 2-5-5 5-8 9-9 11-14 18-13 19-10 14-13 18-10 14-9 12-10 13-2 2-7-1-12-8-8-9-8-16 1-8 6-26 10-29 9-21 9-15 8-12-5 5-10 12-10 13-9 10-13 17-10 13-14 20-8 11-8 12-13 19-12 13-4 1-8-7-8-9-7-15-3-10v-11l4-24 8-30 10-27 11-24 8-17 12-22 13-23z" fill="#0888F0"/>
<path transform="translate(1877,188)" d="m0 0h10l17 5 15 8 6 5-2 4-13 17-10 16-10 17-14 28-11 27-8 26-6 27 11-9 8-8 11-14 13-19 12-20 13-23 16-30 13-23 12-19 3-3 14 1 20 6 11 6 4 3v6l-16 35-12 28-11 30-19 57-13 32-10 22-11 20-12 19-8 11-11 14-15 16-12 11-17 12-16 8-18 6-11 2h-15l-18-3-18-7-12-7-11-10-4-6 1-7 6-8 5-4 5 3 8 7 5 3 11 2 13-1 16-5 17-9 14-10 16-15 9-11 13-18 11-18 13-24 10-23 6-15 8-19 2-7-13 24-7 10-12 14-14 14-14 8-9 1-14-4-12-6-9-7-6-7-6-12-1-10 2-18 5-22 11-33 12-27 11-21 14-21 11-13 7-8 8-6z" fill="#0888F0"/>
<path transform="translate(986,608)" d="m0 0h14l12 3 14 7 12 11 7 10 5 13 2 11 1 112 3 5 9 7 2 2v9l-5 5-8 1h-56l-3-4-1-8 3-6 10-7 1-2v-109l-3-11-4-6-5-3-4-1h-21l-14 3-14 5h-2l1 10 1 112 5 5 7 5 2 7-2 6-3 3-8 1h-57l-3-5-1-6 3-7 9-6 2-2v-112l-3-11-5-5-10-3h-21l-16 4-12 5h-2l1 122 11 9 2 2v9l-4 5-9 1h-56l-3-4v-11l5-5 8-6v-118l-11-4-4-7 1-6 2-3h2v-2l14-11 19-14 7-3 9 1 5 5v9l19-9 15-5 12-2h19l11 3 14 7 10 9 3 2 20-11 20-8z" fill="#0888F0"/>
<path transform="translate(1277,195)" d="m0 0h10l10 6 11 10 7 10 2 4h2l5-8h8l18 6 10 7 4 5v6l-13 29-10 27-6 19-5 21-2 11v22l3 8 7 8 4 3v3l-17 8-13 4h-14l-10-4-6-7-5-12-2-11v-10l3-10-4 4-7 11-9 11-14 14-13 9-11 5-3 1h-8l-10-4-6-4-8-8-6-11-4-11-2-10v-18l4-22 8-24 12-25 9-14 14-19 8-8 6-7 14-11 11-7 11-5z" fill="#0888F0"/>
<path transform="translate(672,112)" d="m0 0h22l20 2 19 5 14 7 8 6 8 7 9 14 5 12 3 15 1 8v15l-2 21-4 21-9 27-11 23-12 18-8 10-12 13-12 11-18 12-17 9-21 7-19 3-25 1-12-1-1-1v-7l6-20 11-29 18-42 16-36 16-33 9-19 12-22 14-25 4-7-2-4-14-10-17-9z" fill="#FDFDFD"/>
<path transform="translate(1117,189)" d="m0 0h10l12 4 14 9 10 10 3 4v10l-4 22-6 18-8 16-10 13-7 8-14 11-10 7-27 14-22 9-2 2 1 18 4 11 2 2h14l14-5 15-9 14-12 22-22 4 1 11 10 1 5-9 11-9 10-14 14-11 9-10 7-16 9-11 5-7 2h-8l-15-4-16-8-10-8-8-9-6-10-5-15-1-5v-23l3-17 4-14 8-21 10-19 11-16 13-15 14-14 14-10 12-7 16-6z" fill="#0888F0"/>
<path transform="translate(1828,41)" d="m0 0 6 1 16 7 15 8 12 9 7 6-2 5-14 18-9 12-9 13-10 15-9 15-12 21-15 30-14 34-12 34-12 36-10 37-6 29-3 22v33l-3 1-15-4-8-6-13-14-5-9-4-18-1-15 3-23 7-31 9-31 12-36 16-43 19-46 12-26 16-32 13-22 8-12 10-13z" fill="#0888F0"/>
<path transform="translate(1865,179)" d="m0 0h24l17 5 13 7 11 9 4 6 8-11 3-3 5-1 29 1 16 5 16 8 7 6 4 6-3 9-13 28-11 26-5 12-10 27-7 21-12 35-10 25-8 19-10 19-7 12-5 9-11 16-10 13-9 11-11 11-1 2h-2v2l-8 7-7 6h-2v2l-11 7-14 8-16 6-14 3h-29l-13-3-18-6-16-8v-2h-3l-5-5-8-7-8-10-1-3v-7l3-8 9-10 7-4h10l2 1v2h3v2l4 1 5 5 3 2h15l16-5 15-8 14-11 12-12 11-14 8-11 14-22-6 2h-15l-10-2-12-5-14-8-12-11-6-9-4-10v-21l3-18 7-25 9-25 13-29 10-18 12-19 11-14 12-12 9-6zm12 9-6 4-10 9-9 11-10 14-9 15-12 23-10 24-10 30-5 22-2 18 1 10 6 12 9 10 13 8 11 4 8 2 9-1 11-6 10-9 11-11 9-11 10-16 9-17-3 10-11 25-8 20-9 19-12 21-12 18-9 12-12 14-13 12-10 7-14 8-14 6-15 3-13-1-7-3-8-6-6-5-5 3-6 7-2 4 1 7 10 11 14 9 14 6 16 4 8 1h15l15-3 19-7 14-8 16-12 15-14 12-13 9-12 10-14 15-25 8-16 9-19 13-33 21-63 13-33 13-29 10-22v-6l-11-7-10-4-14-4-14-1-6 7-14 24-13 24-12 22-14 25-14 22-10 14-8 10-9 10-10 9-2 1 7-31 10-30 11-25 12-24 10-17 12-18 10-13 2-4-9-7-15-7-14-4z" fill="#FC6D69"/>
<path transform="translate(1132,610)" d="m0 0h11l3 3 2 6 1 117 2 12 3 6 7 8 12 6 12 3h15l16-4 16-7 5-3v-118l-2-5-9-6-3-4v-8l4-5 6-1h42l3 4 2 13 1 12 1 110 2 13 11 5 3 4v11l-6 5-27 14-10 5-7 1-8-3-2-4 1-10 1-2-11 6-16 8-15 5-9 2h-15l-14-3-15-6-15-10-14-14-7-12-3-10-1-7-1-86-9-4-5-4-1-9 9-10 16-13 15-10z" fill="#0888F0"/>
<path transform="translate(898,185)" d="m0 0 7 1 15 5 17 9 11 9 1 3-9 12-10 16-9 17-2 4 4-2 9-10 14-14 7-9 13-18 6-7 7-3h10l12 4 8 7-1 8-5 20-1 17 3 17 2 4-1 7-9 14-11 12-5-1-11-8-10-9-8-9-3-5v-2l-5 2-13 10-12 11-8 9-12 18-9 19-11 33-8 32-1 2-9-1-11-5-12-7-9-8-4-6 1-9 10-40 12-39 16-47 11-28 9-19 9-12z" fill="#0888F0"/>
<path transform="translate(1377,607)" d="m0 0h23l27 3 10 3 5 3 2 6v37l-4 4-7 1-7-1-6-7-4-5v-2l-4-2-13-6-7-2h-18l-9 4-6 6v9l5 7 14 9 24 13 17 10 13 10 9 9 6 12 3 11 1 8v9l-4 16-6 10-9 10-11 7-12 5-14 3h-32l-24-4-14-4-5-5-6-31 1-6 4-5 8-3h6l10 9 11 6 16 6 9 2h16l10-5 4-6 1-8-3-7-5-6-14-8-23-12-20-12-12-11-6-7-6-12-3-11v-15l4-15 6-9 7-7 12-7 16-5z" fill="#0888F0"/>
<path transform="translate(1654,607)" d="m0 0h26l11 2 12 4 13 7 14 12 3 3v8l-8 26-5 10-2 1h-9l-7-3-2-5-3-13-4-7-9-6-11-4-5-1h-18l-13 4-9 5-10 9-7 11-5 13-1 7v17l4 15 7 14 9 11 9 7 10 5 12 4 11 2h14l16-3 12-5 11-7 10-8 6-1 9 6 4 4v6l-10 13-16 16-16 10-16 7-18 4h-19l-16-3-16-6-16-9-15-13-11-14-8-15-5-16-2-11v-28l4-17 6-15 7-12 8-10 8-8 15-10 12-6 17-5z" fill="#0888F0"/>
<path transform="translate(990,598)" d="m0 0h8l15 3 12 5 11 8 10 10 8 13 5 13 3 17 1 17 1 85 2 6 7 6 3 7v12l-4 7-4 4-7 2h-61l-8-3-5-6-1-2v-14l4-8 4-4h2v-2l2-1 1-6v-87l-2-16-3-5-6-2h-20l-10 3-4 4-1 5v93l1 11 5 5 5 6 1 3v13l-5 8-6 4-4 1h-61l-9-4-4-6-1-4v-9l3-8 7-8 2-4 1-7v-89l-2-11-5-5-4-1h-21l-11 4-5 4-1 3v101l2 6 7 6 3 6v13l-3 6-7 6-5 1h-61l-8-3-5-5-1-3v-14l4-8 7-6h2v-106l-9-6-5-8v-13l4-7 9-8 14-10 16-11 6-3 7-1 12 3 6 4 9-1 17-5 10-2 11-1h9l14 3 10 4 16 10 7-1 26-11 13-4zm-4 10-16 3-15 6-26 13-9-9-14-8-9-3-5-1h-19l-15 3-17 6-14 7v-9l-5-5-9-1-10 5-17 13-9 7-4 3v2h-2l-3 5 1 6 3 5 11 4v118l-9 7-4 4v11l3 4h56l9-1 4-5v-9l-8-7-5-4-1-122 9-3 16-5 5-1h21l10 3 5 5 3 11v112l-6 5-6 4-2 9 3 7 1 1h57l8-1 4-4 1-7-2-5-11-8-1-2-1-112-1-10 10-3 14-4 6-1h21l8 3 4 5 3 8 1 5v109l-5 5-7 5-2 5 1 8 3 4h56l10-2 3-4v-9l-8-7-5-4-1-6-1-109-3-14-4-10-8-11-7-7-11-7-13-5-6-1z" fill="#F2372E"/>
<path transform="translate(644,71)" d="m0 0h65l29 7v2l11 2 12 5 9 5 6 3v2h3v2l5 1 4 3v2l5 1 2 1v2l5 2 15 14 8 11 10 16 6 13 5 16 3 15 1 9v31l-3 26-7 25-6 16-8 16-12 21-9 13-9 11-11 12-9 9-6 5h-2v2l-19 13-5 2-9 4h-3v2l-17 8-22 8-22 5-15 2h-25l-12-1-1-1-13-2-20-7-13-7-11-8-15-15-7-10-7-12v-10l13-31 5-12 5-13 19-49 10-26 4-12-1 1h-13l-15-6-11-7-9-9-8-13-4-12v-9l6-18 8-15 9-11 17-17 15-10 19-10 23-8 8-2 10-1zm8 9-21 3-22 6-15 6-17 10-10 8-10 9-9 11-8 13-5 12-2 7v8l5 12 8 11 8 7 15 8h2l8-21 11-23 8-12 9-11 7-7 13-9 2-1-12 34-24 64-32 82-19 47-5 11 1 6 10 16 11 12 10 8 13 8 17 7 12 3 17 2h17l20-2 17-4 22-8 16-8 13-8 16-12 15-14 10-10 11-14 9-13 9-16 7-14 9-24 4-14 4-22 1-10v-27l-3-19-6-21-8-17-11-16-12-13-10-9-15-10-15-8-16-6-18-5-21-3z" fill="#FA6E69"/>
<path transform="translate(1436,176)" d="m0 0 9 1 16 6 17 9 11 9 10 9 1 2v6l-2 4 12-9 10-6 13-5 9-2h11l12 3 12 5 13 9 5 5v3h3v-2l16-12 16-8 13-4h24l16 8 8 8 6 12v8l-10 24-16 35-11 25-7 18-4 13-1 8 12 3 7 6 4 7 3 8v11l-9 8-10 6-12 6-14 4h-15l-11-2-10-5-9-7-7-8-7-14-2-7-1-8v-29l-5 7-4 7-11 15-12 17-13 18-12 14h-11l-10-5-7-4v-2l-4-1-12-16-5-10-1-3v-16l3-14v-5l-8 10-22 32-13 18-2 3h-2l-2 5-8 7-1 1h-12l-6-4v-2l-4-2-4-5-3-2v-3h-2l-8-17-4-15v-16l4-22 7-27 9-25 12-27 23-46 11-19 4-4h2v-2zm6 10-4 4-12 21-13 24-11 23-12 29-8 24-7 30-2 14v11l5 15 7 13 12 12 5 1 9-9 9-12 8-12 11-16 12-17 13-18 11-14 9-11 11-13 10-13 8-10 2-1-8 12-9 15-7 16-9 25-5 17-5 22 1 7 7 13 9 10 13 8h5l7-8 14-19 8-11 13-18 12-17 13-19 11-14 11-13 12-15 2-1-3 7-8 16-8 20-7 25-2 14v13l4 17 5 10 7 8 6 4 10 3h18l12-4 14-8 7-5 1-2v-7l-6-9-1-1h-7l-11 3h-3v-13l5-22 10-26 16-35 13-28 7-18-1-7-6-9h-2v-2l-14-7-5-1h-9l-16 5-13 8-14 11-17 17-2 1v2l-3 1v2h-2l-11 14-10 13-2 2 2-5 7-10 9-16 8-20v-5l-10-8-14-7-13-3-11 1-12 5-10 6-14 11-30 30-9 11-12 16-9 13-6 8v2h-2l6-12 13-19 12-17 9-15 10-19 5-12-1-5-11-10-13-8-8-4-14-5z" fill="#F96E69"/>
<path transform="translate(176,221)" d="m0 0h12l7 3 3 5 1 2v12l-5 13-13 24-12 28-10 33-3 12-4 32v39l4 28 4 16 10 30 12 27 13 25 13 19 9 12 10 13 12 14 13 12 11 9 19 14 25 15 14 7 6 1 6-4 15-16 9-11 12-16 8-14 6-18 5-20 7-22 2-10 2-16 3-19 2-19 4-14 9-21 6-18 8-9 11-6 16-4 16-6 6-2 8-1h20l15 3 14 7 7 7 4 8 4 16 1 10v33l-2 10-9 19-8 7-2 1-19 1-6 2 1 6 5 4 10 7 10 13 7 8 7 5 7-1 11-9 10-8 3-3h2v-2l8-7 14-14 1-2v-16l-6-13v-16l4-6 13-7 9-10 5-2h15l6 4v2h2l5 6 12 5 4 5 1 2v17l-6 9-1 7 5 11 2 6 1 7v9l-3 9-8 7-8 2-17 1-9 4-7 6-7 8-9 10-7 8-25 25-8 6 1 3 14 5 7 5 5 6 6-2 7-3 5-1h7l9 3 3 4v19l-5 10-22 26-15 15-1 2v10l8 29 8 19 7 24 2 12 1 24 2 15 2 12v14l-3 6-6 4-4 1h-12l-15-3-6-4-6-9-6-17-5-11-1-4v-20l2-8v-9l-8-20-10-17-5-5-5 1-23 11-17 7-8 3-5 5-11 14-18 18-14 9-15 9-11 6-11 10-4 5-10 6h-16l-7-2-6-7-2-11v-12l2-16 5-11v-4l-26-1-25-3-39-9-31-11-26-12-22-14-17-12-13-10-11-10-8-7-19-19-9-11-13-18-16-26-13-29-11-30-9-40-3-19-2-32v-15l2-31 4-25 6-25 6-20 9-25 14-29 12-20 8-11 11-15 15-16 17-17 20-16zm-1 4-7 4-13 11-8 7-12 11-14 15-11 14-16 24-12 21-13 28-10 30-6 24-5 28-2 27v26l2 26 6 31 9 33 8 21 12 27 10 18 16 24 11 14 9 10 21 21 11 9 14 11 21 14 21 12 19 9 31 11 25 6 14 3 21 3 14 1h30l-10 10-6 8-2 4-1 17 2 16 4 6 6 3h15l6-3 14-14 14-9 20-12 12-9 18-18 11-15 4-4 15-4 35-17 7-1 6 8 10 18 8 19v10l-3 9v18l4 10 5 11 6 16 4 5 8 4 6 1h15l7-3 3-5v-16l-4-18-1-31-4-19-6-18-8-19-8-27-1-11 7-8 17-17 9-11 10-14 2-5v-17l-2-2-4-1h-13l-10 5-9 6-1-7-4-6-12-6-20-4-16-2-33-1v-11l4-5 2-1h7l15 8 7 4 5 1h14l10-3 10-9 24-24 9-11 16-17 7-4 5-1 19-1 8-4 5-6 1-5v-9l-6-16-3-4v-9l7-9 1-3v-13l-3-5-13-5-7-8-4-4-3-1h-8l-7 2-7 9-6 4-9 4-3 5v8l2 8 4 6 1 3 1 21-15 14-8 8-11 9-15 12-8 5-6-1-10-8-6-7-10-13-10-7-8-5 1-6 4-5 9-2h13l7-3 4-5 9-19 1-3v-42l-4-16-4-9-7-7-14-7-8-2h-27l-14 4-10 4-16 3-10 5-5 5-5 7-9 26-7 16-2 8-3 25-5 33-5 19-5 17-6 21-5 13-7 12-13 17-12 14-13 14-4 2h-8l-16-8-20-12-14-10-12-9-11-9-7-7-8-7-7-8-9-11-11-15-12-17-12-23-7-14-12-30-9-31-4-25-2-21v-19l2-24 4-24 8-29 7-20 13-28 12-21 2-6v-11l-4-5-2-1z" fill="#C0BBBD"/>
<path transform="translate(1823,31)" d="m0 0 15 3 12 5 15 8 13 9 10 9 4 7v5l-10 13-12 15-17 25-13 21-10 18-14 27-14 32-15 39-12 36-8 28-4 17-3 13-3 16-2 26v16l1 2v10l-4 4h-17l-14-4-12-8-15-16-6-8-4-10-3-20v-16l4-26 8-32 12-39 15-42 17-43 13-30 14-30 16-30 13-21 11-15 8-9 7-4zm5 10-5 5-13 17-12 20-10 18-17 34-13 30-16 40-15 41-12 36-8 28-7 33-2 18 1 15 4 18 6 10 15 16 8 4 14 3 1-1v-33l3-22 6-29 8-30 10-32 14-40 14-34 12-25 12-23 17-28 7-10 10-14 9-12 10-13 5-7-2-4-10-8-14-9-19-9-8-3z" fill="#F76E6A"/>
<path transform="translate(895,176)" d="m0 0h13l17 5 15 7 9 4 8 4 2 7 7-8 12-6h20l11 4 5 5 7 8 1 7-5 22-1 8v16l14-20 12-14 9-10 11-9 10-8 17-10 12-5 14-3h16l11 3 8 4v2l5 2 5 3 4 5 5 5 5 4 1 4h2l1 3v17l-1 6h-2v9l-1 3h-2v8l-3 5-3 8v2h-2v4l-2 1-2 5 1 3h-2v2h-2l-2 3-3 1-2 4-10 12-11 9-11 8-13 8-19 10-14 7 1 9 4 1 14-5 7-1 5-4 6-3 9-10 7-5 4-5 5-5 6-5 9 1 11 9 4 4 5-23 4-12 5-12 8-16 5-9 9-13 4-7 3-3 4-5 4-4 3-5 12-11 5-5 9-7 5-2v-2l13-7 14-2h7l-4 2-15 4-14 7-12 9-10 9-12 13-12 16-11 17-12 22-8 21-6 26-1 8-4-5-10-11-4-3h-8l-7 7-4 6-5 5h-2v2l-11 9-8 7-11 7-11 5-13 2-3-3-1-3v-15l8-5 18-8 17-9 12-8 12-9 7-7h2l2-4 7-8 9-15 5-11 7-21 3-18 1-12-6-8-11-11-14-9-13-4h-14l-14 3-12 5-11 6-14 10-10 9-7 6-3 6-8 10-1 2h-2l-2 5-8 13-6 11-3 8h2l-1 6-7 18-5 21-1 8v28h-5l1 6 2 3 1 5 3 6v4h-2l-6-13-4-17v-27l2-6 1-5-6 4h-6l-10-5-9-7-10-9-8-8-5 3-12 11-10 12-9 14-7 16-8 24-9 36-5 11-7 3-14-1-15-6-14-9-8-7-6-9-1-2v-9l8-33 12-41 5-16 3-9 9-26 14-35 8-16 6-10 10-12zm3 9-7 6-9 14-10 22-15 41-16 49-7 24-9 38 1 6 6 7 12 9 12 6 8 3h6l4-13 6-24 10-30 10-21 12-17 11-12 10-9 12-9 4-1 2 5 7 9 9 9 14 10 5 1 12-13 8-13 1-7-3-8-2-13 1-17 6-23v-5l-8-7-12-4h-10l-8 4-8 10-10 14-11 13-17 17-4 5-2-1 18-32 9-12 3-5-4-5-13-9-17-8-13-4z" fill="#F96E6A"/>
<path transform="translate(982,592)" d="m0 0h22l9 1 16 7 9 6 10 9 7 9 6 10 5 13 2 13 1 41v39l1 23 2 7 6 7 3 6 1 5v14l-6 10-4 2v2l-10 3-25 1-33-1-12-3-6-4-5-6-2-6 1-13 4-10h2l2-4 3-5 1-5 1-17v-64l-2-14-1-3-5-2h-11l-12 3-3 4-1 13v60l1 20 2 6 3 4v2h2l5 8 1 6v8l-3 10-5 7-8 4-4 1-24 1-36-1-13-4-5-4v-2h-2l-3-6v-13l3-10 6-8 3-6 1-11v-82l-3-7-5-3h-10l-11 2-7 4-2 10v38l1 48 3 6 3 5 4 4 3 9-1 13-5 10-5 4-9 3h-61l-12-4-7-6-2-5-1-13 4-11 8-13 1-9 1-36v-35l-1-12-4-7-7-8-3-7 1-15 4-8 5-6 9-7 4-3h2v-2l16-11 8-4 6-2h11l12 3 2 1h10l14-4 12-2h25l16 4 10 5 9 5 8-1 16-7 20-6zm8 6-18 3-19 7-16 7-7 1-20-12-13-4-7-1h-9l-16 2-15 4-11 3-7-1-6-4-11-2-8 2-12 7-16 12-13 10-5 6-1 3v13l5 8 9 6v106l-4 2-6 5-3 7v14l3 5 4 4 7 2h61l7-2 7-8 1-3v-13l-5-8-6-5-1-5v-101l3-5 10-5 4-1h21l7 3 3 6 1 8v89l-2 10-7 7-3 6-1 4v9l3 7 5 5 6 2h61l8-3 5-6 2-4v-13l-3-6-7-6-1-2-1-11v-93l2-6 5-4 8-2h20l7 3 3 9 1 11v87l-1 6-2 1v2l-4 2-4 5-2 5v14l4 6 6 4 4 1h61l8-3 6-7 1-3v-12l-4-8-7-6-1-5-1-85-2-25-4-15-7-14-7-9-9-9-11-7-13-5-12-2z" fill="#C1BCBE"/>
<path transform="translate(1512,610)" d="m0 0 7 1 8 5 2 4 1 156 3 5 9 6 2 4-1 8-4 4-8 1h-57l-3-4v-11l5-5 8-6 1-10v-106l-2-3-9-2-3-4-2-9 5-6 17-13 16-12z" fill="#0888F0"/>
<path transform="translate(1663,597)" d="m0 0h14l14 2 16 5 14 8 10 8 9 8 3 6v10l-11 33-4 6-6 5-3 1h-11l-9-4-5-4-7-20-7-6-11-4h-21l-12 5-10 8-7 11-3 10-1 7v14l3 13 7 13 8 9 10 7 12 5 5 1h28l12-3 10-5 15-11 4-2h10l10 5 8 9 1 2v9l-9 14-11 12-13 12-15 9-13 6-15 4-7 1h-22l-17-3-19-7-14-8-9-7-10-9-9-11-8-14-5-10-5-19-2-18v-12l2-15 5-17 8-16 8-12 9-10 14-11 14-8 15-6 21-5zm-9 10-20 4-13 5-13 7-12 9-9 9-10 15-7 16-4 14-1 6v28l4 19 7 16 7 11 12 14 14 11 17 9 15 5 13 2h19l21-5 17-8 14-10 16-16 8-11v-6l-9-8-4-2-6 1-10 8-11 7-12 5-16 3h-14l-18-4-10-4-11-7-10-11-6-10-5-13-2-9v-17l2-10 5-12 7-10 10-9 13-6 8-2h18l11 3 10 5 5 5 4 8 3 13 4 4 4 1h9l4-4 5-14 6-19v-8l-7-7-13-10-15-7-10-3-8-1z" fill="#F3372E"/>
<path transform="translate(672,112)" d="m0 0h22l20 2 19 5 14 7 8 6 8 7 9 14 5 12 3 15 1 8v15l-2 21-4 21-9 27-11 23-12 18-8 10-12 13-12 11-18 12-17 9-21 7-19 3-25 1-12-1-1-1v-7l6-20 11-29 18-42 16-36 16-33 9-19 12-22 14-25 4-7-2-4-14-10-17-9zm47 14 2 5 2 4-1 6-13 22-12 22-21 42-15 33-17 38-15 36-9 27 2 6 6 1 28-3 9-3 16-6 15-8 12-9 12-11 11-12 10-13 6-9 14-28 5-15 5-22 1-14 1-2v-28l-1-1-1-11-6-15-7-11-10-9-10-6-8-4z" fill="#FB6E6A"/>
<path transform="translate(175,225)" d="m0 0h15l5 4 1 2v11l-4 10-8 14-8 16-7 15-10 30-6 24-4 28-1 15v19l3 29 3 17 9 31 13 32 8 16 10 19 12 17 9 12 10 13 7 7 7 8 8 7 9 8 16 12 18 12 17 10 14 7h8l6-4 15-16 9-11 12-16 8-14 9-27 5-20 5-16 3-19 4-25 2-19 5-16 5-11 9-25 6-8 10-6 12-3 10-2 13-5 8-2h27l13 4 10 6 8 9 5 16 1 6v42l-5 12-7 13-5 4-4 1h-15l-7 2-4 5-1 6 17 11 10 12 6 8 8 7 5 3 6-1 16-12 13-11 10-9 10-10 6-5-1-21-3-6-3-5-1-6v-8l3-5 9-4 6-4 4-5 5-5 5-1h8l6 3 7 9 6 3 8 3 3 5v13h-2l-1 2-2-16-1-3-11-2-5-3-5-8-9-1-7 1-9 11-11 3-3 3v9l2 8 6 6 1 18h13l9-2-1 5-6 4-1 1-13 1-7 3-5 4-1 2h-2v2h-2l-1 3h-2l-2 4-16 13-10 8-11 8h-2l-2 4-4-1-11-9-9-8-10-14-9-7-10-5-3-2 1-6 8-10 3-2h27l8-20 3-5 1-7-2-18v-16l-4-18-4-9-5-5-9-5-12-2h-25l-12 3-11 5-17 3-9 3v2h-2l-2 5-4 9-6 18-7 15-3 13-3 30-2 11-2 15-8 25-6 24-5 15-5 10-11 16-8 10-13 15-12 13-4 4h-12l-12-5-20-12-16-11-16-12-14-12-13-12-12-13-10-13-9-12-10-15-8-14-9-17-8-19-7-17-5-15-6-27-4-39 1-18 2-20 3-19 8-29 5-16 5-13 15-30 6-10 5-9 1-2v-10l-1-4h-11l-14 7-13 10-17 16-14 15-10 13-8 12-9 15-14 26-11 26-7 22-7 29-3 18-3 43v10l3 38 6 31 4 17 7 21 9 21 10 21 11 18 14 20 13 16 29 29 13 10 18 13 22 13 16 8 23 10 25 8 34 8 22 3 15 1h26l7-1-2 4h-2l-2 4-10 10-5 10-1 8v15l2 9 5 5 13 2v1h-12l-7-4-3-5-2-16 1-17 6-10 5-6 7-5v-1h-30l-23-2-22-4-25-6-30-10-24-11-18-10-21-14-12-9-11-9-13-12-20-20-13-17-14-21-9-16-8-16-9-21-7-19-8-30-6-31-2-26v-26l2-27 5-28 8-31 9-25 10-22 12-22 16-24 10-13 11-12 7-8 7-7 8-7 14-12 7-5z" fill="#1279C0"/>
<path transform="translate(1383,599)" d="m0 0h15l23 2 16 4 8 4 4 5 3 12v12l-1 9 1 9-2 7-6 8-14 1-8-3-5-3-6-9-5-6-6-2-5-2-1-1h-20l-8 4-2 3 3 5 11 8 22 12 22 13 11 7 8 7 8 10 4 8 5 15v23l-3 11-6 11-6 8-10 10-13 8-12 4-14 2h-25l-22-3-23-5-8-5-3-5-2-8-3-23v-11l4-6 5-4 7-3h12l8 7 7 6 14 6 20 5h8l8-4 2-2v-8l-2-4h-2l-2-3-7-3-23-12-21-12-11-8-8-8-9-13-6-15-2-12v-8l3-14 7-14 11-11 14-8 15-5 9-2zm-6 8-18 3-16 6-10 7-7 7-5 10-3 12v15l4 14 7 12 12 12 14 9 18 10 23 12 9 7 4 6 1 7-3 9-5 4-7 3h-16l-15-4-13-5-10-7-8-7-9 1-6 3-4 6 1 10 5 25 5 5 14 4 24 4h32l17-4 16-8 11-10 7-11 4-12 1-6v-9l-3-16-5-12-9-10-8-7-14-9-25-14-19-11-5-4-4-6v-9l4-5 8-4 3-1h18l12 4 9 5 3 1 2 4 7 9 1 1 8 1 8-2 2-3v-37l-3-7-10-4-19-3-12-1z" fill="#F4372D"/>
<path transform="translate(1960,192)" d="m0 0h19l16 5 16 8 7 6 4 6-3 9-13 28-11 26-5 12-10 27-7 21-12 35-10 25-8 19-10 19-7 12-5 9-11 16-10 13-9 11-11 11-1 2h-2v2l-8 7-7 6h-2v2l-11 6-19 9-4 1 1-3 9-4 11-6h2v-2l4-1v-2h2l-1-5 11-9 13-12 12-13 9-12 10-14 15-25 8-16 9-19 13-33 21-63 13-33 13-29 10-22 1-6-4-2-13-7-18-5-14-1-6 8-13 22-13 24-12 22-14 25-14 22-10 14-8 10-9 10-11 10h-2l1-9 6-25 9-27 11-25 12-24 10-17 12-18 10-13 4-1-1 7 2 1-1 5-28 50-9 16-4 7-7 13-2 1 1-5 8-18 4-8-1 1-9 19-4 8-2 10-5 12-6 19 6-5 11-14 7-10 16-26 20-36 13-24 13-23 9-15zm-108 331 2 1z" fill="#F86F6B"/>
<path transform="translate(1513,261)" d="m0 0h2l-2 5-7 10-9 16-10 25-7 21-7 30 1 7 7 13 8 9 13 8h5l9-11 14-19 10-14 13-18 11-16 13-18 11-14 11-13 9-11h2l-1 5-8 15-10 26-6 22-2 14v13l4 17 5 10 6 7 6 4 10 3h18l12-4 14-8 5-2 4 4-2 4-10 6-12 6-14 4h-15l-11-2-10-5-9-7-7-8-7-14-2-7-1-8v-29l-5 7-4 7-11 15-12 17-13 18-12 14h-11l-10-5-7-4v-2l-4-1-12-16-5-10-1-3v-16l3-14v-5l-8 10-11 16-10 15h-2l1-7 9-14 8-11 6-8 8-10 2-6 4-1 2-4 1-4h2l2-5h-1l-2-1 9-11 11-13 10-13z" fill="#FB6D69"/>
<path transform="translate(1512,601)" d="m0 0 9 1 12 6 4 6 2 7 1 32v96l1 23 1 4 4 2 5 6 2 6v7l-3 8-7 6-6 2h-60l-8-3-5-5-2-4v-13l5-10 6-5 2-12v-94l-5-2-6-5-3-5-1-4v-7l3-8 7-7 18-13 14-10zm0 9-13 9-21 16-8 7-1 4 3 9 5 3 7 2 1 2v110l-2 7-11 8-1 2v11l3 4h57l10-2 3-6-1-7-5-5-7-5-1-3-1-156-3-5-9-5z" fill="#F2382F"/>
<path transform="translate(436,556)" d="m0 0 3 1 2 4 2 12v25l-3 14-3 10-5 10-9 11-7 11-6 17-1 4v9l4 13 4 6 2 1 50 1 1 2h-65l-33-6-13-3-2-1-18-2 1-2 7-3 15-14 8-7 26-26 6-8 5-5 8-16 10-28z" fill="#0297DD"/>
<path transform="translate(706,71)" d="m0 0 12 2 20 5v2l11 2 12 5 9 5 6 3v2h3v2l5 1 4 3v2l5 1 2 1v2l5 2 15 14 8 11 10 16 6 13 5 16 3 15 1 9v31l-3 26-7 25-6 16-8 16-12 21-9 13-9 11-11 12-9 9-6 5h-2v2l-19 13-5 2-9 4h-3v2l-17 8-22 8-22 5-15 2h-25v-1l18-1 27-4 15-4 12-4 14-6 21-12 15-11 14-12 4-5h2l1-3h2v-2h2v-3h2l2-4 12-14 12-20 11-21 10-26 5-18 4-26v-39l-3-19-7-20-7-14-7-11-7-9-14-15-9-7v-2l-4-2-21-12-15-6-15-5-25-5v-1z" fill="#BC565B"/>
<path transform="translate(1823,31)" d="m0 0 4 1-8 7-9 14-11 17-15 27-16 32-9 20-13 30-19 50-10 27-10 32-5 17-6 25-3 19v26l2 13 4 13 7 10 3 4 6 7 8 6 10 4v2l-12-3-12-8-15-16-6-8-4-10-3-20v-16l4-26 8-32 12-39 15-42 17-43 13-30 14-30 16-30 13-21 11-15 8-9 7-4z" fill="#BD5459"/>
<path transform="translate(52,416)" d="m0 0 1 4-4 22-2 27v26l2 26 6 31 9 33 8 21 12 27 10 18 16 24 11 14 9 10 20 20 11 9 14 11 21 14 21 12 19 9 31 11 25 6 14 3 21 3 14 1h31l-1 3-5 4h-2l-2 4-6 8-2 4-1 17 2 16 3 5 6 3h15l6-3 14-14 14-9 20-12 12-9 17-17 11-15 5-5 15-4 35-17 7-1 7 9 10 18 8 19v10l-3 9v18l4 10 5 11 6 16 5 5 1 2-5-2-6-9-3-8 1-2h-2l-3-9-4-8-1-4v-22l1-7-2-11-9-21-8-13-5-5-5 1-23 11-17 7-8 3-5 5-11 14-18 18-14 9-15 9-11 6-11 10-4 5-10 6h-16l-7-2-6-7-2-11v-12l2-16 5-11v-4l-26-1-25-3-39-9-31-11-26-12-22-14-17-12-13-10-11-10-8-7-19-19-9-11-13-18-16-26-13-29-11-30-9-40-2-11v-18l-1-15v-29l2-27 4-22z" fill="#C0BABC"/>
<path transform="translate(702,120)" d="m0 0 13 2 17 5 13 7 3 4-5-2-13-7-11-3 5 9-1 6-13 22-12 22-21 42-15 33-17 38-15 36-9 27 1 6 18-1 20-3 16-6 16-8 11-7 13-11 9-9 11-14 3-2-2 5-10 13-14 14-13 10-16 9-16 7-15 4-22 3h-24l1-10 9-25 14-34 22-50 7-15 11-24 8-16 14-27 11-19 8-13 1-4-12-12z" fill="#BC5459"/>
<path transform="translate(1308,241)" d="m0 0h2l-1 5-8 16-9 16-15 26-11 17-11 16-10 13-12 12-8 5-3-1 2-19 6-20 8-17 10-16 14-18 16-16 14-10z" fill="#FE6F6A"/>
<path transform="translate(1865,179)" d="m0 0h24l1 2h-14l-6 3-14 14-11 14-11 16-13 24-9 19-11 28-8 26-4 21v23l5 12 8 11 9 8 12 6 10 3 13 2v1h-12l-10-2-12-5-14-8-12-11-6-9-4-10v-21l3-18 7-25 9-25 13-29 10-18 12-19 11-14 12-12 9-6z" fill="#BC5459"/>
<path transform="translate(900,176)" d="m0 0h8l17 5 15 7 9 4 8 4 2 7 7-8 12-6h20l11 4 5 5 7 8 1 7-5 22-1 8v16l14-20 12-14 9-10 11-9 10-8 17-10 12-5 14-3h16l11 3 8 4v2l5 2 5 3 4 5 5 5 5 4 1 4h2l1 3v17l-1 6h-2v9l-1 3h-2v8l-3 5-3 8v2h-2v4l-2 1-2 5 1 3h-2v2h-2l-2 3-3 1-2 4-10 12-11 9-11 8-13 8-19 10-14 7 1 9 4 1 14-5 7-1 5-4 6-3 9-10 7-5 4-5 5-5 6-5 9 1 11 9 4 4 5-23 4-12 5-12 8-16 5-9 9-13 4-7 3-3 4-5 4-4 3-5 12-11 5-5 9-7 5-2v-2l13-7 14-2h7l-4 2-15 4-14 7-12 9-10 9-12 13-12 16-11 17-12 22-8 21-6 26-1 8-4-5-10-11-4-3h-8l-7 7-4 6-5 5h-2v2l-11 9-8 7-11 7-11 5-13 2-3-3-1-3v-15l8-5 18-8 17-9 12-8 12-9 7-7h2l2-4 7-8 9-15 5-11 7-21 3-18 1-12-6-8-11-11-14-9-13-4h-14l-14 3-12 5-11 6-14 10-10 9-7 6-7 8-10 13-14 20-5 8-1-4-1-18 2-16 5-19v-7l-6-8-12-6-4-1h-17l-8 3-8 7-5 5-1-2-3-1-5-6-15-9-13-6-15-4-7-1z" fill="#BC656A"/>
<path transform="translate(1373,598)" d="m0 0h41l18 3 12 5 5 4 4 9 2 12 1 19-2 10-6 8-4 2 6-8 1-11-1-10 1-3v-12l-3-12-4-5-13-5-18-3-15-1h-15l-14 1-19 5-16 8-10 9-6 8-5 12-2 11 1 16 5 15 6 10 8 10 9 8 20 12 28 15 8 4 3 1v3h2l3 4v8l-6 5-5 2h-8l-20-5-14-6-10-9-5-4h-12l-10 5-4 5-1 2v11l3 23 3 11 5 4 8 3 24 5 17 2h25l17-3 13-5 11-8 10-10 7-12 5-15v-23l-6-18-7-10-3-3v-2l-4-2-8-7-9-5-16-10-11-6-15-8-11-8-3-3-1-4 8-6 3-1h20l2 2 7 1v2l4 1 7 8 3 5v2l5 2 8 3h12l-3 2h-11l-9-4-5-5-8-9-8-4-6-2h-16l-2 4-1 4 4 5 16 9 21 12 21 14 11 10 8 13 5 14 1 4v24l-5 15-7 12-12 12-11 7-16 6-18 3h-21l-23-3-21-5-10-5-4-5-2-5-2-10-4 6-9 6-23 12-10 5-3-1 27-14 14-9 2-3v-11l-1-2-1 1-1 8h-1l-1-11-3-4-3-2 2-1-4-10v-57l-1-61-3-20-4-9 1-2 4 6 3 11 2 16 1 26 1 86 3 5 8 6 4-10 8-7 11-4h7l8 4 10 8 12 6 17 4h10l5-3 2-4v-5l-8-6-28-15-19-11-10-8-11-11-8-14-4-12-1-6v-18l3-11 6-12 8-9 10-7 13-6 13-4z" fill="#BD5458"/>
<path transform="translate(1879,390)" d="m0 0 2 1-2 6-12 22-14 22-14 18-11 12-7 7-17 12-15 7-10 3-7 1h-12l-7-2-15-12h-6l-8 6-6 8-3 8 1 8v2l6 7 13 9 16 8 11 4 8 2v2l-7-1-18-6-16-8v-2h-3l-5-5-8-7-8-10-1-3v-7l3-8 9-10 7-4h10l2 1v2h3v2l4 1 5 5 3 2h15l16-5 15-8 14-11 12-12 11-14 8-11 14-22-2 1h-6v-1l10-3 13-9z" fill="#BD5459"/>
<path transform="translate(621,145)" d="m0 0h2l-3 10-19 52-19 49-18 46-12 30-13 32-1 5 9 15 8 10 4 4-1 5-3-1-8-7-2-5h-2l-8-13-4-8 1-7 1-1 2-10 8-19 5-12 5-13 19-49 10-26 4-12-1 1h-13l-3-1v-2l7 1 1-5 8-22 8-17 10-16 10-13h2l-1 6-11 30-11 29-2 6 5-9 4-11 8-20 3-8 5-15z" fill="#F86C5D"/>
<path transform="translate(1950,191)" d="m0 0h9l1 2-4 4-13 23-14 25-15 28-10 17-13 22-9 13-9 12-9 10h-2l3-13 6-17 2-3 2-10 13-28 2-1-1 5-9 19-3 9 9-17 13-23 14-25 13-23 1-3-3-1 5-4 2-3v-6l3 3 8-11 3-3z" fill="#BC5459"/>
<path transform="translate(176,221)" d="m0 0h12l7 3 3 5 1 2v12l-5 13-13 24-12 28-10 33-3 12-4 32v39l4 28 4 16 10 30 12 27 13 25 13 19 9 12 10 13 12 14 13 12 11 9 1 2-4-2-9-7-16-15-4-3v-2l-4-2-5-6v-3l-4-2-12-17-9-12-9-16-8-14-12-28-4-12-3-8-7-24-4-26-1-18v-28l3-26 5-23 7-25 8-21 3-9 8-16 10-18 2-6v-11l-5-5h-15l-7 4-13 11-8 7-12 11-13 14-11 14-16 24-12 21-13 28-10 30-6 24-3 9-3 18-2 27v29l1 15v12l-2-2-2-32v-15l2-31 4-25 6-25 6-20 9-25 14-29 12-20 8-11 11-15 15-16 17-17 20-16z" fill="#BFB9BC"/>
<path transform="translate(1818,46)" d="m0 0 3 1-1 4-10 14-14 23-14 27-14 29-18 43-11 29-11 30-12 36-8 28-7 33-2 18 1 15 4 18 6 10 13 14-1 3-7-4v-2h-2l-5-7-5-4-6-12-3-11-2-17v-15l4-23 7-28 9-29 8-24 7-19 4-2 3-10 4-12 5-13 6-13 7-18 6-13 5-11 9-19 9-17 7-14 14-23 10-13z" fill="#FB6D68"/>
<path transform="translate(1116,182)" d="m0 0h14l13 4 11 7 10 9 8 8 3 5-2 20-4 17-7 19-8 15-9 12-5 6-8 7-10 8-10 7-2-1 4-5 3-3h2l2-4 8-8 9-11 9-12 8-16 6-18 4-22v-10l-11-12-11-8-12-5-4-1h-10l-16 4-11 5-14 8-13 10-15 15-9 11-12 18-9 17-3-1 1-7 6-9 6-11 6-10h2l2-5 7-8 3-6 14-13 14-10 14-8 12-5z" fill="#FC6D69"/>
<path transform="translate(509,611)" d="m0 0h7l15 8 7 4 5 1h14l10-3 4-3 2 1-7 8 1 3 14 5 7 5 5 6 6-2 7-3 5-1h7l9 3 3 4v19l-5 10-22 26-15 15-1 2v10l8 29 8 19 7 24 2 12 1 24 2 15 2 12v14l-3 6-6 4-4 1h-12l-15-3-6-4-6-9-6-17-5-11-1-4v-20l3-9 1 4-1 3v22l6 16v2l2 1-1 2h2l1 4 4 10 4 5 9 3 6 1h15l7-3 2-4v-16l-4-18-1-31-4-19-6-18-8-19-8-27-1-11 7-8 17-17 9-11 10-14 2-5v-17l-5-2h-13l-10 5-7 5h-2l-3-9-5-5-12-5-23-4-10-1-33-1-1-1v-11l5-6z" fill="#BFB9BC"/>
<path transform="translate(664,494)" d="m0 0 2 1-3 3-1 4v9l4 6 5 14v9l-2 7-7 6-5 2-19 1-9 3-10 9-10 11-9 11-30 30-8 4-5 1h-14l-9-3-16-9-2-1h-7l-5 4-1 2v11l33 1 23 3 16 4 9 5 5 8v5l16-10 3-1h13l5 2 1 1v17l-5 10-13 16-11 12-15 15-1 2 1 11 8 27 11 27 6 23 1 6 1 31 4 18v16l-2 1-2-15-5-17v-25l-4-24-9-27-8-19-5-19-3-13-1-3 5-3 9-7 10-10 9-11 1-2h2l2-4 7-10 2-5v-10l2-2-1-4-3-1-7 2h-7l-10 5-8 6h-2l-2-12-3-5-9-4-13-3-21-2-5-1h-35l-1-1 1-9 2-12 8-4 2-3 4 1 17 10 8 4 5 1h15l7-3 9-7 1-2h2l2-4 5-4 4-5h2v-2l5-5 9-10 9-11 4-5h2l1-3 9-6 2-1 24-1 8-4 3-5v-10l-3-7-3-9-3-1-1-2v-15z" fill="#0F7EC4"/>
<path transform="translate(1283,186)" d="m0 0h8l10 6 6 5 4 6 6 5 15 1 18 6 12 6 8 9 1 6-3 7-3 3-8 20-2 6h-2l-1 6-4 10-7 19-1 4-5 3 3-11 10-28 13-30 2-4v-6l-5-6-8-5-18-6h-8l-5 8-3-1-6-10-9-10-10-7-4-2h-10l-12 4-13 7-14 11-8 7-7 8-9 11-11 16-9 16-8 17-2 5h-2l-1-4 2-8 7-14 9-16 1-5 9-13 9-11 12-13 10-9 15-10 12-5z" fill="#FC6E69"/>
<path transform="translate(1513,261)" d="m0 0h2l-2 5-7 10-9 16-10 25-7 21-7 30 1 7 7 13 8 9 13 8h6l6 3-2 5-2 2h-11l-10-5-7-4v-2l-4-1-12-16-5-10-1-3v-16l3-14v-5l-8 10-11 16-10 15h-2l1-7 9-14 8-11 6-8 8-10 2-6 4-1 2-4 1-4h2l2-5h-1l-2-1 9-11 11-13 10-13z" fill="#FC6E69"/>
<path transform="translate(593,92)" d="m0 0 3 1v2l-16 9-12 9-12 11-9 12-8 14-5 15v8l5 12 8 11 9 7 15 8 3-11 9-21 9-17 9-12 9-10 7-6 10-7h2l-1 5-4 12-5 5-4 8-5 14-2 6-5 13-4 9-4 10-5 10-1-3 11-29 10-27 5-14-5 5-10 14-10 18-10 25-4 11h-8l-11-4-11-7-9-9-8-13-4-12v-9l5-15 1-2h2l1-4 3-3 8-12 12-14 7-8 11-8 7-1v-2z" fill="#FC6F6A"/>
<path transform="translate(1813,33)" d="m0 0h5l-4 3-7 6-13 18-11 18-12 22-11 21-16 36-13 31-15 40-13 37-12 41-6 26-3 21v16l3 20 4 10 6 8 9 9 6 7 10 6v2l-7-1-9-6-13-14-7-11-4-10-3-21v-12l3-26 7-31 13-44 20-55 11-28 12-28 12-26 13-26 13-22 8-12 10-14h2l2-4 3-1 1-3z" fill="#C0BBBD"/>
<path transform="translate(1300,673)" d="m0 0h2l5 14 8 12 11 12 7 7 17 11 14 8 11 6 9 6 2 2-1 4h-8l-11-3-8-4-9-7-8-5-12-2-11 2-17 8-2-1-1-4-1-23 1-37z" fill="#FEFEFE"/>
<path transform="translate(1810,485)" d="m0 0v3l-5 3h-2v2l-6 3h-2l-1 3-2-1-1 5-11 4-11 2-13-1-7-3-8-6-6-5-5 3-6 8-1 7 7 9 10 8 16 8 11 4 18 3h15l15-3 19-7 14-8 7-3v4h-2v2l-4 1v2l-13 7-9 4-1 2 17-8 6-3-1 3-15 8-14 5-14 3h-29l-6-2v-2l-11-2-15-6-14-8-11-9-5-7v-4l1-8 6-10 9-8 2-1h6l12 10 5 3 5 1h12l14-3 12-5 11-6z" fill="#FA6F6A"/>
<path transform="translate(1521,502)" d="m0 0 4 1 2 3 2 18v14l-2 5-10 6-20 8h-6l-3-6-1-7v-25l2-4 12-6 16-6z" fill="#0888EF"/>
<path transform="translate(485,405)" d="m0 0h27l13 4 10 6 8 9 5 16 1 6v42l-5 12-7 13-5 4-4 1h-15l-7 2-4 5-1 6 17 11 10 12 6 8 8 7 5 3 6-1 16-12 13-11 10-9 10-10 6-5-1-21-3-6-3-5-1-6v-8l3-5 9-4 6-4 4-5 5-5 5-1h8l6 3 7 9 6 3 8 3 3 5v13h-2l-1 2-2-16-1-3-11-2-5-3-5-8-9-1-7 1-9 11-11 3-3 3v9l2 8 6 6 1 18h13l9-2-1 5-6 4-1 1-13 1-7 3-5 4-1 2h-2v2h-2l-1 3h-2l-2 4-16 13-10 8-11 8h-2l-2 4-4-1-11-9-9-8-10-14-9-7-10-5-3-2 1-6 8-10 3-2h27l8-20 3-5 1-7-2-18v-16l-4-18-4-9-5-5-9-5-12-2h-25l-14 3v-3z" fill="#117BC1"/>
<path transform="translate(815,631)" d="m0 0h4l4 6 5 4h10l-2 5-3 5-1 4-4 2-1 88-1 3h-2l-3-9-2-9-1-15-5-25-5-8v-14l-2-8-4-11 1-8 3-5z" fill="#0092FE"/>
<path transform="translate(1517,494)" d="m0 0h10l7 6 3 7 2 15v13l-2 9-4 6-5 4-15 7-15 5h-7l-8-5-3-6-2-11v-25l4-9 5-4 15-7zm4 8-15 5-14 6-4 4-1 2v25l2 10 2 3 9-1 23-10 5-4 1-4v-14l-2-18-3-4z" fill="#EE3A32"/>
<path transform="translate(932,644)" d="m0 0h8l4 2v7h-2l-2 45v55l-3 1-2-1-2-8-1-9v-15l-2 1-1 8-1 5-2 1-1-7-1-9v-11l-2-21-1-6v-16l-2-13 3-5z" fill="#0092FE"/>
<path transform="translate(174,284)" d="m0 0 1 3-8 19-6 20-7 28-3 21-1 11v36l3 24 4 20 7 23 3 7 8 20 7 16 16 28 9 12 12 17 3 2 4 7 5 4v2l4 2 9 9 8 7 10 8 7 3 13 10 25 15 14 7 6 1 6-4 15-16 9-11 12-16 8-14 6-18 5-20 7-22 2-10 2-16 3-19 2-19 2-1-1 19-5 35-2 16-7 23-5 19-6 17-6 11-14 19-13 15-14 15-4 2h-8l-16-8-20-12-14-10-12-9-11-9-7-7-8-7-9-10-8-10-11-15-12-17-12-23-7-14-12-30-9-31-4-25-2-21v-19l2-24 4-24 8-29 7-20z" fill="#BEB8BB"/>
<path transform="translate(1911,332)" d="m0 0 1 3-10 24-12 29-9 19-12 21-12 18-9 12-12 14-14 13-10 7-14 8-7 3v-3l1-2h2l4-4 5-1v-2l7-4 1-3 11-8 13-13 11-14 12-17 14-24 8-15-1-2-10 9-12 8-6 1-1-4-2-2 14-7 10-9 10-10 9-11 10-16 9-17z" fill="#FC6E69"/>
<path transform="translate(1307,198)" d="m0 0 3 1 5 5 4 2 21 3 19 8 11 10 3 6v9l-4 9-12 28-10 27-6 21-1 1-2 10v30l7 8 5 6 2 1v11l-7 6-1-2-9-1 1-3 6-2-2-4-8-7-4-7-1-4v-22l5-25 3-9 3-3h2l1-7 9-25 6-13 5-12 4-10 4-4 1-8-8-10-12-6-18-6-15-1-8-7z" fill="#FC6E69"/>
<path transform="translate(1276,350)" d="m0 0h2l-2 10v10l3 14 6 12 5 4 8 3h14l13-4 9-4 2 1 9 1-3 5-18 8-7 2h-23l-10-4-8-7-6-8-4-10v-2l-8 7-12 12-15 9h-8v-2h2l-1-3 3-3 4-3 10-7 10-9 9-9 10-14z" fill="#FB6D69"/>
<path transform="translate(1121,240)" d="m0 0 4 1-4 15-7 13-11 14-14 14-16 11-8 5h-2l1-6 7-16 10-16 9-11 3-4h2l2-4 9-8z" fill="#FA6C5C"/>
<path transform="translate(1513,488)" d="m0 0h15l8 5 5 7 3 11v28l-3 10-6 8-9 6-15 6-7 2h-13l-9-4-7-8-2-5-1-6v-23l2-14 6-8 11-7 15-6zm4 6-15 5-17 8-5 6-2 6v25l3 14 4 5 6 3h7l20-7 13-7 5-6 2-5 1-6v-13l-2-15-4-8-6-5z" fill="#C0BBBD"/>
<path transform="translate(1696,227)" d="m0 0h1v8l-10 24-16 35-11 25-7 18-4 13-1 8 12 3 7 6 4 7 3 8v11l-7 6v-2l-4-2-1-3 3-1v-9l-6-9h-7l-11 3-4-1v-13l5-22 5-13h3l5-12 3-7 6-12h2l1-6 1-2h2l-1-3 7-15 3-6 7-16 5-12 1-2h2z" fill="#F56E6A"/>
<path transform="translate(789,105)" d="m0 0 6 2v2l5 2 15 14 8 11 10 16 6 13 5 16 3 15 1 9v31l-3 26-7 25-6 16-8 16-12 21-9 13-9 11-11 12-9 9-6 5h-2v2l-19 13-5 2-5 1 4-4 12-8 13-11 8-7 11-11 9-11 10-13 13-21 9-19 9-25 6-26 2-14 1-26-2-18-4-18-7-19-9-16-10-13-12-13-11-9z" fill="#BFB9BC"/>
<path transform="translate(435,583)" d="m0 0h2l1 4-4 18-5 13-4 8-11 15-6 10-3 7-2 14v26l-3 1-13-4-23-5-1-2 3-3 8-6 4-5 8-7 9-9 5-7 5-5 4-6 3-3 7-12 9-22 5-17z" fill="#1377BE"/>
<path transform="translate(1923,209)" d="m0 0h3l-1 7 2 1-1 5-28 50-9 16-4 7-7 13-2 1 1-5 8-18 4-8-1 1-9 19-6 11-5 8-6 17-2 8-4 1 4-16 7-20 11-25 12-24 10-17 12-18 10-13z" fill="#F56B5D"/>
<path transform="translate(1860,177)" d="m0 0h10l14 1v1l-19 1-8 4-12 11-9 10-12 18-11 19-8 16-9 20-10 28-6 22-3 18v21l5 12 8 10 11 9 16 8 6 2-3 1v2l-9-2-10-5-13-10-8-9-5-8-3-14v-15l4-25 4-16 10-30 10-23 11-21 13-20 11-14 9-10 7-7 6-4z" fill="#C0BABD"/>
<path transform="translate(719,126)" d="m0 0 11 2-2 4-4 15-13 23-10 18-8 16-13 27-12 26-12 27-18 42-9 25-2 6v4l2 1h31v2l-20 3-14 1-4-1-2-6 9-27 13-31 19-43 13-28 12-25 16-32 21-36-1-6-3-5z" fill="#C0BBBD"/>
<path transform="translate(634,464)" d="m0 0 4 2 4 9v2l16 4 2 1-1 4-9 8v7l1 9-5 1-7-4h-7l-9 5-5-1 2-11v-5l-6-7-4-3 2-4 13-3z" fill="#FCFCFC"/>
<path transform="translate(74,611)" d="m0 0 3 1 13 27 11 18 14 20 13 16 29 29 13 10 18 13 22 13 16 8 23 10 25 8 34 8 22 3 15 1h26l7-1-2 4h-2l-2 4-10 10-5 10-1 8v15l2 9 5 5 13 2v1h-12l-7-4-3-5-2-16 1-17 6-10 5-6 7-5v-1h-30l-23-2-22-4-25-6-30-10-24-11-18-10-21-14-12-9-11-9-13-12-20-20-13-17-14-21-9-16-8-16-4-9z" fill="#0F7EC5"/>
<path transform="translate(469,410)" d="m0 0 3 1-1 2-13 5-13 2-9 3v2h-2l-2 5-4 9-6 18-7 15-3 13-3 30-2 11-2 15-8 25-6 24-5 15-5 10-11 16-8 10-13 15-12 13-4 4h-12v-2l10-2 8-7 11-12 9-11 12-16 8-14 9-27 5-20 5-16 3-19 4-25 2-19 5-16 5-11 9-25 6-8 10-6 12-3 10-2z" fill="#117AC1"/>
<path transform="translate(1459,667)" d="m0 0 5 1 4 4 2 12v35l-1 9-2 1-3-3-6-12-6-9-8-9-11-9-3-3 2-4 13-3 11-8z" fill="#FEFEFE"/>
<path transform="translate(1031,647)" d="m0 0 3 1 5 11-1 8 8 2 5 1v100l-4-4-3-14-2-16-3-17-1-22-2-14 1-9-1-7-5-7-3-5 1-7z" fill="#0093FF"/>
<path transform="translate(1652,647)" d="m0 0h13l9 2 14 8 4 8 4 15 3 4-4-2-4-9-4-12-7-6-11-4h-21l-12 5-10 8-7 11-3 10-1 7v14l3 13 7 13 8 9 10 7 12 5 5 1h28l12-3 10-5 15-11 4-2h10l10 5 8 9 1 2v9l-9 14-11 12-13 12-15 9-13 6-15 4-7 1h-22l-17-3-19-7-5-3 2-1 12 5 17 5 8 1h27l17-4 12-5 12-7 11-9 15-15 9-13 2-7-3-7-7-7-8-4h-7l-7 4-11 9-11 6-13 4-4 1h-21l-12-3-10-4-11-8-8-9-8-16-3-11v-23l4-13 7-10 9-8 11-5z" fill="#BD5459"/>
<path transform="translate(1144,615)" d="m0 0 2 1 1 6-1 21-1 4-2 43-1 2h-4l-4 8-2-4-2-16-2-10-1-12-3-9v-7l2-7 6-6 8-2 2-3h2z" fill="#0093FF"/>
<path transform="translate(534,749)" d="m0 0 3 1 3 8 7 10 6 11 8 16 3 9v8l-3 9v21l4 9 4 8 4 14 3 4v2l5 2 9 2h19l-1 2-4 1h-15l-9-2-7-5-5-10-6-16-5-10-1-4v-18l3-9v-10l-8-19-11-20-5-6-7 1-24 12-14 6-12 3-8 9-9 12-18 18-15 10-17 10-13 9-13 13h-2l2-4 8-10 9-7 10-6 11-6 17-11h2v-2l8-7 7-7 6-8 11-16 1-1 14-2 28-13 10-6z" fill="#107CC3"/>
<path transform="translate(1430,178)" d="m0 0 4 1-5 4-9 16-12 23-16 32-10 24-9 25-7 28-3 18v16l4 15 6 12v2l-4-2-5-8-4-11-2-10v-17l4-22 6-23 8-24 13-30 18-36 11-19 6-9h2l1-3z" fill="#BFBABC"/>
<path transform="translate(1818,46)" d="m0 0 3 1-1 4-10 14-14 23-14 27-14 29-18 43-11 29-11 30h-2l-1-6 3-10 3-8 7-20 5-13 6-13 7-18 6-13 5-11 9-19 9-17 7-14 14-23 10-13z" fill="#F96B5B"/>
<path transform="translate(1276,186)" d="m0 0h7l-4 2-15 4-14 7-12 9-10 9-12 13-12 16-11 17-12 22-8 21-6 26-1 8-4-5-10-11-4-3h-8l-7 7-4 6-5 5h-2v2l-11 9-8 7-11 7-11 5-13 2-3-3-1-3v-15l4-3h2l-2 5v7l2 7 12-2 14-7 9-7 10-9 5-5 5-4 4-5 5-5 6-5 9 1 11 9 4 4 5-23 4-12 5-12 8-16 5-9 9-13 4-7 3-3 4-5 4-4 3-5 12-11 5-5 9-7 5-2v-2l13-7z" fill="#BC565B"/>
<path transform="translate(1374,645)" d="m0 0h20l2 2 7 1v2l4 1 7 8 3 5v2l5 2 8 3h12l-3 2h-11l-9-4-5-5-8-9-8-4-6-2h-16l-2 4-1 4 4 5 16 9 21 12 21 14 11 10 8 13 5 14 1 4v24l-5 15-7 12-12 12-11 7-16 6-18 3h-21l-23-3-21-5-10-5-3-4 4 2 7 4 28 6 17 2h25l17-3 13-5 11-8 10-10 7-12 5-15v-23l-6-18-7-10-3-3v-2l-4-2-8-7-9-5-16-10-11-6-15-8-11-8-3-3-1-4 8-6z" fill="#BD5459"/>
<path transform="translate(1134,312)" d="m0 0m-1 1m-1 1m-2 1h7l3 1-2 4-5 5-6 5-4 5-6 4-7 8-4 3-7 4-1 1-9 2-13 4-4-2-1-9 8-5 17-8 9-5 16-10z" fill="#FBFBFB"/>
<path transform="translate(530,756)" d="m0 0h5l7 9 10 18 8 19v10l-3 9v18l4 10 5 11 6 16 5 5 1 2-5-2-6-9-3-8 1-2h-2l-3-9-4-8-1-4v-22l1-7-2-11-9-21-8-13-5-5-5 1-23 11-17 7-8 3-5 5-11 14-18 18-14 9-15 9-6 3-2-1 6-4 4-4 18-11 10-8 16-16 11-15 5-5 15-4 35-17z" fill="#BFBABC"/>
<path transform="translate(702,141)" d="m0 0h2l-1 8-1 3h-2l-1 4-8 14-5 10-8 14-9 19-8 16-8 18-6 12-5 12-8 18-5 11-4 9-10 24-8 20-3 4-2-1 12-33 19-44 16-36 16-33 9-19 12-22 14-25z" fill="#F86B5B"/>
<path transform="translate(1436,176)" d="m0 0 9 1v1l-9 2-7 11-8 16-13 25-8 16-11 24-6 15-6 17-5 15-5 21-1 8v20l5 16 7 13 11 12v2h-2v-2l-4-2-4-5-3-2v-3h-2l-8-17-4-15v-16l4-22 7-27 9-25 12-27 23-46 11-19 4-4h2v-2z" fill="#BC565B"/>
<path transform="translate(900,176)" d="m0 0h8l17 5 15 7 9 4 8 4 2 7 7-8 12-6h20l11 4 5 5 7 8 1 7-5 22-1 8v16l14-20 12-14 9-10 11-9 10-8 17-10 7-3h3v2l-17 8-13 9-10 8-11 10-7 8-10 13-14 20-5 8-1-4-1-18 2-16 5-19v-7l-6-8-12-6-4-1h-17l-8 3-8 7-5 5-1-2-3-1-5-6-15-9-13-6-15-4-7-1z" fill="#BC565A"/>
<path transform="translate(620,646)" d="m0 0 5 1 1 1v19l-7 11-11 13-9 10-16 16-1 2 1 11 8 27 11 27 6 23 1 6 1 31 4 18v16l-2 1-2-15-5-17v-25l-4-24-9-27-8-19-5-19-3-13-1-3 5-3 9-7 10-10 9-11 1-2h2l2-4 7-10 2-5v-10l2-2-1-4z" fill="#1279BF"/>
<path transform="translate(765,259)" d="m0 0 4 4-6 16-11 21-12 17-12 14-10 10-14 11-18 11-9 4 1-5 3-3h2l1-3 16-9 16-13 12-12 6-8 4-6 3-7 5-7 12-24 3-1z" fill="#F96D5E"/>
<path transform="translate(1147,603)" d="m0 0 4 2 5 7 2 7 1 81v31l1 12 4 8 5 4 8 4 12 2h11l16-4 8-5 3-9v-99l-3-5-2-3 5 2 3 3 1 5v106l-6 5-19 7-9 1h-13l-13-4-6-4-5-5-3-7-1-9v-91l-1-28-3-7z" fill="#BD5459"/>
<path transform="translate(1876,180)" d="m0 0h15l12 3 16 8 11 9 2 3v6l-5 6-2-1-1-8-10-7-13-6-14-4h-10l-6 4-8 6-2-1-5 4-4 6h-2l-2 4-8 11-7 11-6 12-4 6h-2l2-6 11-20 8-11 9-12 12-13 8-8z" fill="#F96E6A"/>
<path transform="translate(1663,597)" d="m0 0h14l14 2 16 5 14 8 10 8 9 8 3 6v10l-11 33-4 6-4 4-2-1 6-7 12-36v-9l-4-6-10-8-6-5-9-5-13-6-16-4h-21l-16 2-16 4-12 5-12 7-11 8-8 7-8 10-9 15-5 11-5 17-1 9v23l4 20 5 13 5 10 12 17 7 8 13 10 8 5-2 1-14-9-13-12-8-10-8-14-5-10-5-19-2-18v-12l2-15 5-17 8-16 8-12 9-10 14-11 14-8 15-6 21-5z" fill="#BD5459"/>
<path transform="translate(1648,650)" d="m0 0h21l11 4 8 7 7 20 5 5-5-2-5-8-8-16-4-2-11-4h-17l-12 5-10 9-6 9-3 9-1 7v10l2 16 5 10v2h2l2 5 4 2 8 6 14 6 11 2h11l16-2 17-8 12-8 5-2h12v1l-10 1-11 7-11 8-13 5-6 1h-28l-10-3-10-5-10-8-8-10-5-10-3-13v-14l3-14 6-11 6-7 11-7z" fill="#B8B0B5"/>
<path transform="translate(1158,622)" d="m0 0h1l2 19 1 92 2 13 2 4 2 1v2l6 2 8 3h19l16-5 5-5 2-4 1-57v-39l-3-9h-2l-5-8 1-3 3 5v2l4 2 4 4 1 3v99l-3 9-5 4-11 4-9 2h-11l-12-2-10-5-6-7-2-5-1-17z" fill="#B8B0B5"/>
<path transform="translate(613,146)" d="m0 0h2l-1 6-11 30-11 29-6 16-2-1 2-6-1 1h-13l-3-1v-2l7 1 1-5 8-22 8-17 10-16z" fill="#BC555A"/>
<path transform="translate(1508,601)" d="m0 0 4 1-12 6-12 9-15 11-9 8-3 8v7l3 7 5 5 6 4 1 3v91l-2 12-5 5h-2l-2 5-1-3 3-4 3-7 1-6 2-64v-19l-2-9-7-8-5-1-9 6h-3l6-8 2-12-1-17-1-12 6 9v2l9-2 8-7h3v-2l5-2v-2l5-2v-2h3v-2l12-7z" fill="#B8B0B5"/>
<path transform="translate(1810,485)" d="m0 0v3l-5 3h-2v2l-6 3h-2l-1 3-2-1-1 5-11 4-11 2-13-1-7-3-8-6-6-5-5 3-6 8-1 7 7 9 3 3v3l-5-2-7-6-4-7-1-9 6-9 8-7 2-1h6l12 10 5 3 5 1h12l14-3 12-5 11-6z" fill="#FC6D69"/>
<path transform="translate(990,598)" d="m0 0h8l15 3 12 5 11 8 10 10 8 13 5 13 3 17 1 17 1 85 2 6 7 6 3 7v12l-2 4-1-2 1-11-3-8-1-3-7-2-2-3-1-96-2-20-5-17-5-10-7-9-5-5-5-4-5-3v-2l-4-1-11-5-10-2h-16l-14 3-17 6-16 8-4 3-5-1-10-7-10-6-10-4-6-1h-17l-14 2-11 3-4-1 13-4 10-2 11-1h9l14 3 10 4 16 10 7-1 26-11 13-4z" fill="#BD5459"/>
<path transform="translate(943,285)" d="m0 0 5 1 2 4-4-1-11 9-8 8-10 13-8 14-8 20-7 23-7 29-5 11-6 2 3-11 8-32 8-24 6-15 9-16 5-8h2l1-3h2l2-4 12-12 8-7z" fill="#BD5459"/>
<path transform="translate(988,653)" d="m0 0 9 2 3 7 2 15v96l-5 5-5 3-4 9v10l2 7-3-3-1-2v-14l4-8 4-4h2v-2l2-1 1-6v-87l-2-16-3-5-6-2h-20l-10 3-4 4-1 5v93l1 11 5 5 5 6 1 3v13l-2 2v-14l-5-8-6-3-2-2-1-91v-23l6-4 16-3z" fill="#BD5459"/>
<path transform="translate(509,611)" d="m0 0h7l15 8 7 4 5 1h14l8-1-2 2-9 3-1 2 9 2 15 4 7 4 8 9 3 1-1 3-5 2-3-9-5-5-12-5-23-4-10-1-33-1-1-1v-11l5-6z" fill="#B9B1B5"/>
<path transform="translate(856,656)" d="m0 0h21l7 3 3 4 2 11v89l-2 10-7 7v-3l4-8 1-4 1-21v-23l-1-50-3-8-11-4h-9l-13 4-5 3-3 7v85l1 11 2 8-5-3-1-5v-101l3-5 8-5z" fill="#B9B1B5"/>
<path transform="translate(870,653)" d="m0 0 15 2 4 5 2 9 1 104-3 4-6 3-4 5-2 6v12l-2-4v-9l3-8 7-8 2-4 1-7v-89l-2-11-5-5-4-1h-21l-11 4-5 4-1 3v101l2 6 7 6 3 6v13l-3 6-2 1 2-5 1-3v-9l-3-7-4-4-4-2-2-6v-108l4-4 13-4z" fill="#BD5459"/>
<path transform="translate(593,92)" d="m0 0 3 1v2l-16 9-12 9-12 11-9 12-8 14-5 15v8l5 12 4 6v5l-6-2v-2h-2l-4-9-2-7 1-2h-2l-2-9 1-7 4-10h2l1-4 3-3 8-12 12-14 7-8 11-8 7-1v-2z" fill="#FB6D5D"/>
<path transform="translate(157,341)" d="m0 0h1l-1 8-3 18-2 18v39l4 28 4 16 10 30 12 27 13 25 13 19 9 12 10 13 12 14 13 12 11 9 1 2-4-2-9-7-16-15-4-3v-2l-4-2-5-6v-3l-4-2-12-17-9-12-9-16-8-14-12-28-4-12-3-8-7-24-4-26-1-18v-28l3-26 4-18z" fill="#C1BCBE"/>
<path transform="translate(1955,203)" d="m0 0 4 2-20 35-14 26-12 22-16 27-15 22-9 11-7 8-3-2 2-5h2v-2h2l2-4 13-17 11-17 13-23 10-17 7-14 6-10 6-12 10-17z" fill="#F96C5B"/>
<path transform="translate(1512,601)" d="m0 0 9 1 12 6 4 6 2 7 1 32v96l1 23 1 4 4 2 5 6 2 6v7l-3 8-4 3 2-4 2-5v-10l-3-6-8-5-2-6-1-150-3-10-8-6-5-2h-10l-10 7-13 10-11 8-7 6-5 5-1 3v7l3 8 3 5-4-2-4-6-1-4v-7l3-8 7-7 18-13 14-10z" fill="#BD5459"/>
<path transform="translate(1260,623)" d="m0 0 7 1 7 3 2 3 3 1v10l-4 1-3 16 1 7-2 7-5 4-2-2-2-6-2-16-4-12-1-7 4-9z" fill="#0093FF"/>
<path transform="translate(174,284)" d="m0 0 1 3-8 19-6 20-7 28-3 21-1 11v36l3 24 4 20 7 23 3 7 8 20 7 16 16 28 9 12 12 17 3 2 4 7 5 4v2l4 2 9 9 8 7 14 11 17 13 4 3v2l-5-2-11-8-12-9-11-9-7-7-8-7-9-10-8-10-11-15-12-17-12-23-7-14-12-30-9-31-4-25-2-21v-19l2-24 4-24 8-29 7-20z" fill="#B9B0B4"/>
<path transform="translate(1892,377)" d="m0 0 2 2-12 26-13 23-12 18-9 12-12 14-14 13-10 7-14 8-7 3v-3l1-2h2l4-4 5-1v-2l7-4 1-3 11-8 6-4h2v-2l6-5 6-8h2l2-4 13-18 7-12 6-10 8-16 6-11 5-8z" fill="#F86B5B"/>
<path transform="translate(176,221)" d="m0 0h12l7 3 3 5 1 2v12l-5 13-13 24-12 28-10 33h-2l1-8 7-24 8-20 4-12 13-24 4-8 1-3v-11l-5-5h-15l-7 4-13 11-8 7-12 11-13 14-11 14-15 22-1-3 8-12 8-11 9-11 18-20 10-9 11-9 7-6 5-5z" fill="#C0BABD"/>
<path transform="translate(968,656)" d="m0 0h20l7 3 3 5 2 16v87l-2 7h-2v2l-6 4 6-15 1-12v-70l-1-12-3-7-4-3-7-2h-8l-11 3-5 3-3 7v86l2 14 3 5 3 3-1 2-8-7-1-2-1-11v-93l2-6 6-5z" fill="#B9B1B5"/>
<path transform="translate(1113,244)" d="m0 0 4 1-1 2-5 3-1 4 5-2-2 5-6 7-6 11-9 9-9 7-3 3-2-1 4-7-3 4h-2l-1 3h-2v2l-3 1-1-3 9-15 10-13 4-5h2l2-4 9-8z" fill="#FB6C5B"/>
<path transform="translate(1582,314)" d="m0 0 2 1-3 9-3 13-2 18v10l3 19 2 8v2l10 11 10 6 8 3 2 2-8-1-10-5-9-7-7-8-7-14-2-7-1-8v-31l9-12z" fill="#BC555A"/>
<path transform="translate(1723,480)" d="m0 0h10l2 1v2h3v2l4 2h-4-6l-8 6-6 8-3 8 1 8v2l6 7 13 9 16 8 11 4 8 2v2l-7-1-18-6-16-8v-2h-3l-5-5-8-7-8-10-1-3v-7l3-8 9-10z" fill="#BC575B"/>
<path transform="translate(1478,307)" d="m0 0v3l-3 5h-2l-1 5-4 4-2 1-2 6-9 11-9 12-3 5-9 14-1 8-13 18-2 3h-2l-2 5-5 4-7 3 2-10 11-12 10-15 13-19 12-17 13-18 10-13z" fill="#F66B5D"/>
<path transform="translate(487,403)" d="m0 0h24l15 4 11 7 6 7 4 11 3 11 1 36-1 9h-1l-1-42-4-16-4-9-9-8-11-5-8-2h-27l-14 4-10 4-16 3-10 5-5 5-4 6-9 26-7 16-2 8-3 25-5 33h-1l1-16 4-26 1-19 1-7 7-17 6-16 4-12 8-9 8-4 2 1 10-3 11-2 15-6z" fill="#BDB7BA"/>
<path transform="translate(1565,336)" d="m0 0 2 1-5 7-4 7-11 15-12 17-13 18-7 8-7-3 2-4 9-12 13-18 11-15 8-11 5-1 5-3z" fill="#F96C5C"/>
<path transform="translate(1921,260)" d="m0 0 1 3-7 12-6 11-14 25-13 19-11 14-2 3h-2v2h-2l-1 5v4l-11 10h-2l1-9 4-16 4-1 2-11 6-16 5-8h1v7l-4 9-8 24 6-5 11-14 7-10 16-26 10-18 8-13z" fill="#FD6E69"/>
<path transform="translate(869,597)" d="m0 0h24l12 3 9 4 11 6 4 1h13l4-2v-2l10-5 11-4 10-1h28l8 2 5 3-2 1-11-3-7-1-16 1-16 4-20 8-12 5-6-1-18-11-13-4-7-1h-9l-16 2-15 4-11 3-7-1-6-4-10-2v-1h7l12 2h8l17-5z" fill="#B9B1B5"/>
<path transform="translate(1853,410)" d="m0 0h2l-2 5-18 27-9 11-11 12-7 7-15 11-17 8-11 3h-15l-6-4 2-1 9 1 14-2 12-5 11-6 7-5h2v-2l10-8 9-9 13-17 10-15 5-7 1-3z" fill="#BFB9BC"/>
<path transform="translate(1282,267)" d="m0 0 2 1-2 6-13 22-12 19-12 17-8 10-2-1 6-18 10-18 12-16 10-11 7-8z" fill="#C0BABD"/>
<path transform="translate(52,416)" d="m0 0 1 4-4 22-2 27v26l2 26 6 31 9 33 8 21 12 27 10 18 16 24 11 14 9 10 20 20 22 18h-3l-13-10-13-12-9-9-2-1v-2l-4-2-1-3h-2l-7-8-11-14-14-20-8-15-8-16-10-24-7-19-10-41-3-17-2-27v-29l2-27 4-22z" fill="#B9B1B5"/>
<path transform="translate(1292,258)" d="m0 0h2l-2 5-9 16-13 22-5 9h-2l-1 4-13 19-11 13-6 7h-1l1-8 5-17 4-9 6-11 9-13 7-9 2-3h2l2-4 12-13 7-4zm-10 9-7 8-12 14-10 13-10 17-5 12-3 11h2l11-14 16-24 9-15 11-19-1-3z" fill="#BD5459"/>
<path transform="translate(1478,315)" d="m0 0h1l-1 7-7 21-6 26v8l6 12 8 10 11 8 12 6-3 2-10-5-7-4v-2l-4-1-12-16-5-10-1-3v-16l3-14v-5l-8 10-11 16-6 9-1-3 14-21 6-8 7-8 5-6z" fill="#BC575C"/>
<path transform="translate(946,288)" d="m0 0 2 2h-2l-1 5-5 2-2 4-7 7-8 10-8 13-10 23-8 26-7 26-5 8h-3l5-13 9-36 10-28 8-15 9-12 11-12 10-9z" fill="#BFB9BC"/>
<path transform="translate(1298,257)" d="m0 0h5l-6 12-10 18-12 20-9 14-11 16-10 13-12 12-2-4h2l1-5 4-3h2l2-5 4-4 12-18 13-20 10-17 9-14 7-14z" fill="#FA6C5B"/>
<path transform="translate(664,494)" d="m0 0 2 1-3 3-1 4v9l4 6 5 14v9l-2 7-7 6-5 2-19 1-9 3-10 9-10 11-9 11-30 30-5 3-3-1 11-10 3-3h2l2-4 5-4 4-5h2v-2l5-5 9-10 9-11 4-5h2l1-3 9-6 2-1 24-1 8-4 3-5v-10l-3-7-3-9-3-1-1-2v-15z" fill="#117AC1"/>
<path transform="translate(485,405)" d="m0 0h27l13 4 10 6 8 9 5 16 1 6v42l-5 12-7 13-3 3h-2v-2h2l8-20 3-5 1-7-2-18v-16l-4-18-4-9-5-5-9-5-12-2h-25l-14 3v-3z" fill="#0F7DC4"/>
<path transform="translate(1861,197)" d="m0 0 2 1-2 5-9 10-14 21-10 18-10 21-10 26-3 9-3-3 1-5 2-7 5-14 6-13 7-15 8-14 6-11 7-10 6-8h2l2-4 5-6z" fill="#F96C5B"/>
<path transform="translate(1290,251)" d="m0 0 2 1-1 3-5 9-8 6-4 1v2h-3v2l-4 3h-3l-2 5h-2l-2 5-5 9h-2l-1 4-2 4h-2l-1 4h-2v4l-3 3-4 8-3 5-3 8-1 7-2 6-2 1-1-4 6-20 8-17 10-16 14-18 16-16z" fill="#F86B5C"/>
<path transform="translate(401,655)" d="m0 0 1 2-3 7-1 28-1 1h-7l-16-4-1-5 25-25z" fill="#B9B1B5"/>
<path transform="translate(1078,200)" d="m0 0h4l-1 4-11 7-13 12-9 9-9 11-12 18-9 17-3-1 1-7 6-9 6-11 6-10h2l2-5 7-8 3-6 8-7 6-3h2v-2l6-5 5-1v-2z" fill="#FA6C5B"/>
<path transform="translate(1245,207)" d="m0 0 1 2 2 1-11 9-7 6-7 8-9 11-11 16-9 16-8 17-2 5h-2l-1-4 2-8 7-14 13-23 7-9 9-11 5-5h2v-2l11-9 6-5z" fill="#FA6C5B"/>
<path transform="translate(1526,619)" d="m0 0 2 1v37l-7-2-2 5-4 1-7-13v-9l2-2 3 2 2-5 1-2h5z" fill="#0093FF"/>
<path transform="translate(1309,667)" d="m0 0h1l4 16 7 13 9 10 10 9 15 9 28 15 13 8 3 3-1 8-4 4-3 1h-10l-17-4-14-7-8-7 2-1 11 7 16 6 3 1h16l2-3-1-8-5-2-5-4-16-8-18-10-12-9-10-9-8-10-7-13-1-4z" fill="#B7B0B5"/>
<path transform="translate(1432,192)" d="m0 0h4l-1 5-9 16-12 22-11 23-12 29h-2l-1 2-1-1 1-7 6-16 14-30 10-19 12-21z" fill="#F96C5B"/>
<path transform="translate(1276,186)" d="m0 0h7l-4 2-15 4-14 7-12 9-10 9-12 13-12 16-11 17-12 22-8 21-3 12-3 1 2-11 4-12 5-12 8-16 5-9 9-13 4-7 3-3 4-5 4-4 3-5 12-11 5-5 9-7 5-2v-2l13-7z" fill="#BB5F64"/>
<path transform="translate(1537,614)" d="m0 0 3 4 1 4 2 38v92l1 16 2 10-4-2-2-4-1-32v-87l-1-32z" fill="#B9B1B5"/>
<path transform="translate(778,182)" d="m0 0h2l1 6v15l-2 21-4 21-6 18-3-3-5 10h-2l1-4 5-15 5-22 1-14 2-10 2-1 1 7 2-1z" fill="#F86D69"/>
<path transform="translate(264,631)" d="m0 0 5 2 13 10 25 15 14 7 6 1 6-4 15-16 7-8 3-2v5l-11 13-14 15-4 2h-8l-16-8-18-11-2-4-11-8-10-8z" fill="#BFB9BC"/>
<path transform="translate(1685,222)" d="m0 0 7 1 4 3-2 8h-2l-2 6-3 8-6 14-7 15-4 9v2h-2l-3 10h-2l-1 5-3 5-5 11-4 9-3-1 8-20 14-30 15-33 4-11-1-7z" fill="#F96B5B"/>
<path transform="translate(1379,648)" d="m0 0h13l10 4 6 4 7 8 5 5 8 3 10 1v1h-11l-8-3-11-9-8-6-6-3h-12l-3 3 2 5 12 7 11 6 13 8 15 11 9 7-1 2-12-9-19-12-24-13-10-7-3-5 4-7z" fill="#B9B1B5"/>
<path transform="translate(1170,372)" d="m0 0 3 3 3 7 4 9 3 3v2l4 2 6 2-4-4v-2l4 2 7 5 9 3h8l8-3h3l-1 2-2 2v2h-2v2l5-1-3 3-7 2h-14l-12-5-12-11-9-19z" fill="#F4726E"/>
<path transform="translate(1088,662)" d="m0 0 5 2 5 4 1 20 1 8v19l-1 32 2 12 5 13 7 11 9 10 2 3-4-2-8-8-7-10-6-13-3-13-1-16-1-66-6-5z" fill="#BD5459"/>
<path transform="translate(1925,217)" d="m0 0h2l-1 5-28 50-9 16-4 7-7 13-2 1 1-5 8-18 4-8 10-21h2l3-9 10-16 9-12z" fill="#BFB9BC"/>
<path transform="translate(1129,303)" d="m0 0v3l-9 9-7 8-5 5-16 9-17 8-7 2v-8l18-8 21-11 14-10z" fill="#FB6D67"/>
<path transform="translate(1289,622)" d="m0 0 2 3 2 15 1 8 1 84 1 14 1 4 4 1 7-2 4-4 2 1-6 7-3 10-12-10-1-3-1-86-1-26z" fill="#B7B0B5"/>
<path transform="translate(890,186)" d="m0 0h6l-6 8-7 11-10 22-9 24-3 1-2-2 4-11 8-26 9-17 5-5z" fill="#FA6C5C"/>
<path transform="translate(599,479)" d="m0 0h1l2 13 5 8 1 3 1 21-16 15-8 8-11 9-15 12-8 5-6-1-10-8-7-8-10-13-14-9-4-3 1-6 5-6 9-2h17l-3 2-18 1-5 2-2 7 5 5 9 6 9 10 9 12 8 6 2 1h7l16-12 13-11 15-14 7-7 2-3v-9l-2-12-5-10z" fill="#B9B0B4"/>
<path transform="translate(1117,245)" d="m0 0 2 1-1 7-6 9-8 11-8 10-7 8-8 6-2 2v5l-11 7-5 2 1-6 6-13 4 1v-2l5-4 4-4-2 5-1 3 10-9 8-7 7-10 3-5 7-10-7 4 2-6 3-3z" fill="#FD6E69"/>
<path transform="translate(1758,319)" d="m0 0 1 3v8l-7 30-3 17-4 5 1 9-2 5 1 7v12h-2l1 9-4-5 1-7 1-30 5-25 4-17 2-7 4-13z" fill="#048CF1"/>
<path transform="translate(510,613)" d="m0 0 9 1 7 2 5 5 5 4v2l-9 2h-19l-4-3 1-9z" fill="#C1BCBE"/>
<path transform="translate(632,454)" d="m0 0h8l6 3 7 9 6 3 8 3 3 5v13h-2l-1 2-2-16-1-3-11-2-5-3-5-8-9-1-7 1-9 11-11 3-3 3v9l1 9v3l-4-6-1-6v-8l3-5 9-4 6-4 4-5 5-5z" fill="#0E7FC6"/>
<path transform="translate(1661,594)" d="m0 0 21 1 19 4 14 7 14 10 10 9v3l-11-10-15-10-14-6-13-3-9-1h-14l-17 2-19 5-12 5-2-1 4-5 15-6 13-3z" fill="#B9B1B5"/>
<path transform="translate(1617,656)" d="m0 0 1 3-7 11-5 13-1 7v24l-3-1-3-9-2-12v-8l6-16 5-4 6-7z" fill="#028FF8"/>
<path transform="translate(475,775)" d="m0 0h7l-1 3-5 3-6 7-9 12-18 18-15 10-17 10-13 9-13 13h-2l2-4 8-10 9-7 10-6 11-6 17-11h2v-2l8-7 7-7 6-8 11-16z" fill="#117AC0"/>
<path transform="translate(1805,61)" d="m0 0v3l-15 25-9 19-9 17-8 17-5 11-4 11-5 12-9 20-9 26-1 2h-2l1-6 16-41 10-23 11-25 9-19 10-19 14-24z" fill="#FF6F6A"/>
<path transform="translate(1266,367)" d="m0 0 2 1-3 6-4 3-3 5-2 6-12 11-6 4-5 5-7 1h-3v-2h2l-1-3 3-3 4-3 10-7 10-9 9-9 4-5z" fill="#FA6D5D"/>
<path transform="translate(1307,783)" d="m0 0 2 1 3 13 4 6 10 5 21 5 23 3h21l21-3-1 2-11 3-9 1h-19l-15-1-14-2-16-5-10-4-11-10-7 1-10 3-1-2 14-8 4-5z" fill="#B9B1B5"/>
<path transform="translate(1307,198)" d="m0 0 3 1 5 5 4 2 21 3 19 8 11 10 3 6v9l-4 9-12 28-10 27-6 21h-2l2-10 7-23 11-27 11-25v-10l-8-10-12-6-18-6-15-1-8-7z" fill="#BD7075"/>
<path transform="translate(1381,594)" d="m0 0h12l14 1 16 2 12 3 6 3 1 2-10-3-18-3h-41l-18 4-13 5-4 1 1-2h2v-3h2v-2l9-4 12-3z" fill="#B9B1B5"/>
<path transform="translate(459,459)" d="m0 0 2 3 2 14 5 9-1 7-4 5-9 1-3-1 1-8 3-8 1-1 2-19z" fill="#0197DD"/>
<path transform="translate(1164,346)" d="m0 0h2l1 14 4 15 5 12 3 5-1 2-7-10-4-12-2-9-1-1-1-8-8 11-7 7-7 8-10 9-14 11-11 7-15 8-10 3 3-3 16-8 15-9 10-8 10-9 16-16 12-16z" fill="#BC5C60"/>
<path transform="translate(1369,231)" d="m0 0 2 1-1 8-5 6-8 20-2 6h-2l-1 6-4 10-7 19-1 4-5 3 3-11 10-28 13-30 2-4v-7l5-1z" fill="#F86B5C"/>
<path transform="translate(1469,663)" d="m0 0 6 2 3 3 1 103-2 5-9 6-3 5-1 3v13l-2-2v-13l5-10 6-5 2-12v-94l-5-2z" fill="#BD5459"/>
<path transform="translate(157,341)" d="m0 0h1l-1 8-3 18-2 18v39l4 28 4 16 8 25-1 3-2-2-8-25-4-16-1-7-3-24v-36l3-26 4-18z" fill="#C2BDBF"/>
<path transform="translate(1694,362)" d="m0 0h3l1 6h1l3 19 4 11 6 8 11 12-1 3-7-4v-2h-2l-5-7-5-4-6-12-3-11-1-17z" fill="#FA6C5B"/>
<path transform="translate(769,664)" d="m0 0 7 2 1 2 1 100-1 7-10 6-4 9v10l1 6-2-1-1-3v-14l4-8 7-6h2v-106l-5-3z" fill="#BD5459"/>
<path transform="translate(1059,650)" d="m0 0 3 4 3 22 1 70 1 21 3 11-6-4-1-5-1-85-2-25z" fill="#B9B1B5"/>
<path transform="translate(760,654)" d="m0 0 3 4 4 5 8 5v102l-1 4-9 6 2-4 4-10 1-6v-85l-3-7-7-7-2-4z" fill="#B2B0B6"/>
<path transform="translate(1635,196)" d="m0 0h14v2h11v1l-17 1-16 5-16 9-11 9h-2v2h-3l2-7 4-4 16-10 12-6z" fill="#C0BBBD"/>
<path transform="translate(1455,772)" d="m0 0 1 3-6 11-9 10-9 8-14 7-14 4-13 2h-21l-23-3-21-5-10-5-3-4 4 2 7 4 28 6 17 2h25l17-3 13-5 11-8 10-10 9-15z" fill="#CE5B5D"/>
<path transform="translate(1080,651)" d="m0 0 6 9 9 8 1 66 1 16 4 16 5 10-1 2-6-9-4-13-2-12-1-69-3-7-1-3h-2l-6-10z" fill="#B7B0B5"/>
<path transform="translate(487,403)" d="m0 0h24l15 4 11 7 6 7 4 11 3 11 1 36-1 9h-1l-1-42-4-16-4-9-9-8-11-5-8-2h-27l-14 4-10 4-16 3-9 3 1-2h2l1-2 11-3 11-2 15-6z" fill="#B9B1B5"/>
<path transform="translate(900,176)" d="m0 0h8l17 5 15 7 9 4 8 4 2 7 7-8 12-6 3 1-9 4-8 6-5 6-3 1v-2l-3-1-5-6-15-9-13-6-15-4-7-1z" fill="#BD5F64"/>
<path transform="translate(1567,336)" d="m0 0h1v30l2 12 5 12 7 10 8 7 5 4-5-1-9-5-8-9-3-5-5-15-1-6-1-25-2 1 2-5z" fill="#BEB7BA"/>
<path transform="translate(611,139)" d="m0 0h2l-3 9-6 7-3 3-3 5-2 2-3 7-5 9-9 15-3 1 3-9 10-21 8-12 9-11z" fill="#F96C5C"/>
<path transform="translate(556,812)" d="m0 0 1 4-1 3v22l6 16v2l2 1-1 2h2l1 4 4 10 4 5 9 3 6 1h15l7-3 3-4h2l-1 5-5 4-6 2h-12l-15-3-6-4-6-9-6-17-5-11-1-4v-20z" fill="#C1BBBD"/>
<path transform="translate(374,795)" d="m0 0h4l-2 4h-2l-2 4-10 10-5 10-1 8v15l2 9 5 5 13 2v1h-12l-7-4-3-5-2-16 1-17 6-10 5-6 7-5v-1h-20v-2l20-1z" fill="#1278BE"/>
<path transform="translate(1661,393)" d="m0 0h2l4 4-2 4-10 6-12 6-7 1-2-1-1-4h3v-3l12-5 10-6z" fill="#F96F60"/>
<path transform="translate(530,756)" d="m0 0h5l7 9 10 18 8 19v10l-3 9v18l4 10 5 11 6 16 5 5 1 2-5-2-6-9-3-8 1-2h-2l-3-9-4-8-1-4v-22l2-7v-9l-8-20-11-19-4-5-6-1z" fill="#B9B1B5"/>
<path transform="translate(1009,194)" d="m0 0 6 1 8 7 2 10-1 12-5 27-1 7-3 2v-17l3-17 3-13-1-7-7-8z" fill="#C0BABD"/>
<path transform="translate(1749,769)" d="m0 0v3l-11 12-13 12-15 9-13 6-15 4-7 1h-22l-17-3-19-7-5-3 2-1 12 5 17 5 8 1h27l17-4 12-5 12-7 11-9z" fill="#D05C5E"/>
<path transform="translate(1882,377)" d="m0 0h2l-1 5-2 3h-2l-3 9-14 11-8 4h-3l-1-4-2-2 14-7 10-9z" fill="#F96C5C"/>
<path transform="translate(1565,336)" d="m0 0 2 1-5 7-4 7-11 15-12 17-2-4 3-6 3-1 2-7 3-3 1-3-3 1 2-5 7-9 5-1 5-3z" fill="#EF6E6A"/>
<path transform="translate(1585,299)" d="m0 0h2l-2 6-8 13-6 8-7 13-5 5-4 3h-3l1-4 11-16 13-18z" fill="#F96C5D"/>
<path transform="translate(173,222)" d="m0 0 7 1 10 1v1l-15 1-7 4-13 11-8 7-12 11-13 14-11 14-15 22-1-3 8-12 8-11 9-11 18-20 10-9 11-9 7-6 5-5z" fill="#B9B1B5"/>
<path transform="translate(1113,252)" d="m0 0h2l-2 5-6 7-6 11-9 9-9 7-3 3-2-1 9-13 9-11 14-15z" fill="#BD5459"/>
<path transform="translate(1726,631)" d="m0 0 5 2 2 2v8l-8 26-2 4h-3v-8l2-15 4-8z" fill="#028FF8"/>
<path transform="translate(1463,338)" d="m0 0h1l-1 10-2 10v16l4 10 10 14 2 3-4-1-8-7-7-12-2-16 1-9 1-3 1-6-4 2 2-4z" fill="#C0BBBD"/>
<path transform="translate(1531,197)" d="m0 0h11l6 2v1l-18 4-12 5-15 10-5 4-1-2 3-7 2 1 3-5 11-6 12-6z" fill="#C1BBBD"/>
<path transform="translate(604,494)" d="m0 0 4 2 4 4 1 18h13l9-2-1 5-6 4-1 1-13 1-7 3-3 3-2-1 9-9-2-10-1-11z" fill="#1574BB"/>
<path transform="translate(664,494)" d="m0 0 2 1-3 3-1 4v9l4 6 5 14v9l-2 7-7 6-5 2h-17v-1h16v-2l8-4 3-5v-10l-3-7-3-9-3-1-1-2v-15z" fill="#0F7DC4"/>
<path transform="translate(2012,214)" d="m0 0 4 2v5l-3 5-4 11-1 5h-2l-2 6-5 10-5 12-7 14-2-1 1-5 15-34 10-22z" fill="#F86B5C"/>
<path transform="translate(1442,622)" d="m0 0h2v37l-2 3h-5v-32l4-7z" fill="#038DF3"/>
<path transform="translate(1526,513)" d="m0 0h1l1 10 1 1v14l-2 5-8 5h-4l1-4 3-3 4-26z" fill="#0290F8"/>
<path transform="translate(1643,199)" d="m0 0h15v1l-20 4-12 5-16 11-12 11h-2v-6h2v-2l16-12 16-8z" fill="#BD5459"/>
<path transform="translate(1172,361)" d="m0 0 3 1 4 14 5 10 6 8 2 4 2 3-4-1-2 1-5-5v-2l-3-1-3-7-4-7-3-7 1-9z" fill="#FA6C5B"/>
<path transform="translate(1096,185)" d="m0 0h3v2l-17 8-13 9-10 8-11 10-7 8-10 13-7 10-4 2 2-5 12-16 9-10 7-8 14-12 13-9 12-7z" fill="#BC6166"/>
<path transform="translate(1e3 357)" d="m0 0 3 1 5 15 7 11 3 7-2 2v-2h-3v-2l-4-2-3-3v-2h-2l-4-10-2-7-2-5 1-2z" fill="#FC6D5B"/>
<path transform="translate(1227,802)" d="m0 0h4l4 6 4 3 7 2h13l-3 2h-11l-11-4-4-3-9 1-17 6-15 3h-19l-16-4-12-5-2-2 5 1 13 5 9 2h27l20-6 12-6z" fill="#D85F5F"/>
<path transform="translate(772,158)" d="m0 0 4 4 4 18-1 3v27l-3 2-1-1-1-29-1-13-2-5z" fill="#FC6D5B"/>
<path transform="translate(1070,348)" d="m0 0 3 1-1 2 1 8 4 1 14-5 7-1 5-4 2 1-10 8-13 6-3 1h-9l-3-7v-7z" fill="#C0BABC"/>
<path transform="translate(1290,251)" d="m0 0 2 1-1 3-5 9-8 6-4 1v2h-3v2l-4 3-5 2-3 3-2-1 11-12 10-10z" fill="#F96C5B"/>
<path transform="translate(1880,395)" d="m0 0 1 2-6 12-8 14-10 16-13 18h-2l-2 4-8 9h-2v2l-5 2 6-7 9-10 14-19 13-21 11-20z" fill="#FF6F6A"/>
<path transform="translate(1721,478)" d="m0 0h8l2 2-10 2-6 4-7 8-3 8v7l4 7 10 11 4 4-6-2-11-10-4-11 1-15 6-8 9-6z" fill="#C0BABD"/>
<path transform="translate(883,349)" d="m0 0h1v11l-6 20-4 17-4 1v-12l2-3 2-7v-6l2-3 1-3 2-8h2l-1-4z" fill="#048DF3"/>
<path transform="translate(1309,667)" d="m0 0h1l4 16 7 13 9 10 10 9 15 9 22 12 1 2-6-2-16-8-12-7-14-11-8-8-7-10-5-10-1-4z" fill="#B9B1B5"/>
<path transform="translate(742,90)" d="m0 0h8l15 8 11 8 8 7 2 5-5-2-10-8-19-11-9-4z" fill="#F96B5B"/>
<path transform="translate(1456,725)" d="m0 0 2 1 3 8 1 9v20l-1 13-3 7-5 3-5 5-4 5-5 4-2-1 10-10 8-14 4-13v-24z" fill="#B9B1B5"/>
<path transform="translate(1728,493)" d="m0 0h4l-2 4-6 8-1 7 7 9 3 3v3l-5-2-7-6-4-7-1-9 5-5h2l2-4z" fill="#FA6C5B"/>
<path transform="translate(1597,794)" d="m0 0 5 2 13 8 15 6 15 4 8 1h22l15-3 3 1-11 4-7 1h-24l-20-4-17-7-16-11z" fill="#B9B1B5"/>
<path transform="translate(1791,357)" d="m0 0h2l1 5h1l2 8 5 10 8 9 8 5v2l-5-1-10-6-7-8-5-10-1-3v-7z" fill="#F96B5B"/>
<path transform="translate(52,412)" d="m0 0 1 4-4 18-2 20-1 14v29l1 15v12l-2-2-2-32v-15l2-31 4-25z" fill="#C2BDBF"/>
<path transform="translate(1276,186)" d="m0 0h7l-4 2-15 4-14 7-12 9-10 9-11 10-1-3 14-13 5-5 9-7 5-2v-2l13-7z" fill="#BC6166"/>
<path transform="translate(1542,200)" d="m0 0h11l-2 2-14 2-13 5-11 7-10 8-10 9-2-1 4-6 5-5 7-6 13-8 13-5z" fill="#BC555A"/>
<path transform="translate(738,306)" d="m0 0 1 2-6 8-7 9-13 13-13 10-16 9-8 4-3-1 3-3 16-8 11-7 13-11 9-9 11-14z" fill="#BC6165"/>
<path transform="translate(1473,812)" d="m0 0h68l-4 3-3 1h-49l-10-2z" fill="#B9B1B5"/>
<path transform="translate(1904,250)" d="m0 0 2 1-8 18-4 7-4 10-5 9-7 13-2 1 1-5 8-18 4-8 10-21h2l2-4z" fill="#EDEBEC"/>
<path transform="translate(1332,307)" d="m0 0 3 2v7l-5 18-2 5-1 3h-2l1 16-3-1v-13l5-24z" fill="#028EF7"/>
<path transform="translate(1950,380)" d="m0 0h3l-2 10-4 8-3 10h-2l-2 6-10 19-2-1 5-13 8-17z" fill="#F96B5D"/>
<path transform="translate(593,87)" d="m0 0 2 1-17 10-14 10-9 10-9 11-10 15h-2l-1 4-2-1 8-15 9-11 17-17 15-10z" fill="#D86D6D"/>
<path transform="translate(167,225)" d="m0 0m-1 1v3l-10 9-10 8-14 13-7 8-11 13-7 9h-2l2-4 8-11 15-16 17-17 10-8z" fill="#C2BDBF"/>
<path transform="translate(1829,152)" d="m0 0 2 1-5 12-8 13-7 16-8 15-3 1 3-9 18-36z" fill="#F4695C"/>
<path transform="translate(511,616)" d="m0 0h6l9 5 2 4-4 2h-15l-2-2v-5z" fill="#FEFEFE"/>
<path transform="translate(1465,270)" d="m0 0h2l-2 4-11 15-9 13-7 10h-2l1-5 10-16 12-17h4z" fill="#EF6559"/>
<path transform="translate(1061,812)" d="m0 0 3 1-6 3h-45l-11-1-2-2z" fill="#B9B1B5"/>
<path transform="translate(392,672)" d="m0 0 3 1v12l-2 3h-9l-3-2v-5l5-5z" fill="#FEFEFE"/>
<path transform="translate(711,418)" d="m0 0m-3 1 5 1-3 2-19 7-22 5-15 2h-25v-1l18-1 27-4 15-4 12-4z" fill="#BD6B6F"/>
<path transform="translate(1268,374)" d="m0 0h1l2 12 5 11 6 7 5 5-5-2-8-8-6-10-2-8-8 7-12 12-9 5 1-3 9-7 10-9 7-8z" fill="#BE6A6F"/>
<path transform="translate(1911,332)" d="m0 0 1 3-15 36-4-2h-4l7-11 8-14z" fill="#F36659"/>
<path transform="translate(1127,800)" d="m0 0 5 2 14 8 18 6 6 1h19l15-3 7-1-2 2-19 5h-20l-17-4-16-7-10-8z" fill="#B9B1B5"/>
<path transform="translate(1971,323)" d="m0 0h1l-1 9-3 7-5 16-6 17-3 7-2-2 1-5 16-48z" fill="#F4695D"/>
<path transform="translate(1307,198)" d="m0 0 3 1 5 5 4 2 21 3 19 8 11 10 3 6v9h-2l-1-10-8-10-12-6-18-6-15-1-8-7z" fill="#BC6C70"/>
<path transform="translate(608,807)" d="m0 0 2 4 1 8 1 28h2l3 17v14l-3 1-1-17-4-18z" fill="#BBB4B8"/>
<path transform="translate(1307,783)" d="m0 0 2 1 3 13 4 6 11 6-3 1-8-4-10-9-7 1-10 3-1-2 14-8 4-5z" fill="#A2ACB8"/>
<path transform="translate(561,848)" d="m0 0 3 1 5 10 4 14 3 4v2l5 2 9 2h19l-1 2-4 1h-15l-9-2-7-5-5-10-6-16z" fill="#107CC2"/>
<path transform="translate(606,334)" d="m0 0 2 3-1 8-7 21-1 4-4-1-1-3 1-5v-2l2-1 1-7 4-8 1-5 2-1z" fill="#038EF6"/>
<path transform="translate(1582,249)" d="m0 0h4l1 5h-2l-2 4-10 12-8 11-4 3 1-4 7-11 8-13 3-6z" fill="#F56C5D"/>
<path transform="translate(935,282)" d="m0 0 1 2-5 5-11 12-9 11-5 6-5 5 1-5 9-13 11-12 11-10z" fill="#F4695C"/>
<path transform="translate(775,813)" d="m0 0h61v2l-4 1h-37l-18-1z" fill="#B9B1B5"/>
<path transform="translate(1858,519)" d="m0 0h3l2 4-1 4h-2v2l-11 6-19 9-4 1 1-3 9-4 11-6h2v-2l4-1v-2h2l-1-5zm-6 4 2 1z" fill="#F86C5D"/>
<path transform="translate(1957,355)" d="m0 0h2l-3 11-11 29-7 16-2-2 1-5 10-24 2-3 2-6 1-1 1-8h2l1-6z" fill="#0A84E7"/>
<path transform="translate(1579,369)" d="m0 0h3l3 7 4 12 7 10 1 2-4 1-5-5-4-6-4-11-1-3z" fill="#F96C5B"/>
<path transform="translate(393,667)" d="m0 0 3 1 1 3v13l-2 6-7 1-9-3-2-2 1-5 3-3 2-4 5-3zm-1 5-6 4-5 5v5l3 2h9l2-3v-12z" fill="#C1BCBE"/>
<path transform="translate(920,186)" d="m0 0 10 4v2h3l13 13 5 1-2 5-7-6-10-7-15-7-1-3z" fill="#F76B5B"/>
<path transform="translate(405,480)" d="m0 0h1l-1 19-6 42-4 14h-2l4-20 2-16 3-19 2-19z" fill="#C2BDBF"/>
<path transform="translate(891,813)" d="m0 0h59v2l-3 1h-29l-25-1z" fill="#B9B1B5"/>
<path transform="translate(398,541)" d="m0 0h1l-1 9-7 23-5 19-2 3v-12l5-19 4-9h2z" fill="#BDB7BA"/>
<path transform="translate(606,498)" d="m0 0 2 1 1 3 2 17 1 4-9 9-2 4h-2v2h-2l-1 3h-2l-2 4-11 9-2-1 15-16 8-8 6-5-1-21z" fill="#107CC2"/>
<path transform="translate(1124,602)" d="m0 0 4 1-12 7-13 10-11 9-8 9-1-3 7-9 8-7h2v-2l8-6h3l1-2 4-2 4-3z" fill="#B9B1B5"/>
<path transform="translate(65,366)" d="m0 0h1l-1 9-5 15-6 24-2-2 1-9 7-27 4-9z" fill="#BEB8BB"/>
<path transform="translate(1124,604)" d="m0 0 2 1-16 12-16 13-3 3h-2l-2 4-4 6v10l3 5-1 2-4-6-1-3v-7l6-10 9-9 13-10 14-10z" fill="#BD5459"/>
<path transform="translate(1475,252)" d="m0 0 4 1 2 1-2 4-10 11-2 2-3 1-1 2-3-1 10-15 3-5z" fill="#F86C5D"/>
<path transform="translate(882,190)" d="m0 0 2 1-9 16-5 11-10 25-8 21h-2l3-10 14-36 8-16 5-9z" fill="#BC7276"/>
<path transform="translate(1948,188)" d="m0 0 7 1 19 2v1h-24l-6 2-7 9-4 4-1-5 3-7 5-4z" fill="#C0BABD"/>
<path transform="translate(803,605)" d="m0 0 2 1-16 12-13 10-9 7-4 5-1 2v10l1 6-3-4v-13l4-7 9-8 14-10z" fill="#BD5459"/>
<path transform="translate(965,203)" d="m0 0 3 1-1 4-13 18-5 6-3-1 1-4h2l2-4 9-14z" fill="#FC6D5C"/>
<path transform="translate(1335,397)" d="m0 0h10l-3 5-18 8-6-1 2-1 1-4 6-1 5-2z" fill="#F77163"/>
<path transform="translate(1126,340)" d="m0 0h2l-1 5-11 11-7 5-5 1v-3l7-6 5-5 9-7z" fill="#FB6C5B"/>
<path transform="translate(620,463)" d="m0 0h3l-2 5-5 4-9 2-3 3v9l1 9v3l-4-6-1-6v-8l3-5 9-4 6-4z" fill="#0E80C7"/>
<path transform="translate(371,798)" d="m0 0v3l-5 4h-2l-2 4-9 12 1-5 4-7 2-7-19-2v-1z" fill="#B99EA3"/>
<path transform="translate(1746,752)" d="m0 0 2 1-1 7-9 11-4 4h-4l2-4 3-7 9-8z" fill="#028FF8"/>
<path transform="translate(928,242)" d="m0 0 8 1-1 4-9 9-5 6-3-1 6-11z" fill="#F76C5D"/>
<path transform="translate(1757,758)" d="m0 0 1 4-4 8-8 11h-2v2l-8 6-9 7-2-1 16-15 8-9z" fill="#B9B1B5"/>
<path transform="translate(1276,376)" d="m0 0h1l4 13 6 9v4l-4-1-3-1-5-12-2-7 1-4z" fill="#FA6C5B"/>
<path transform="translate(1554,710)" d="m0 0h2l2 18 5 19 5 10v2h-2l-7-13-5-19-2-10h2z" fill="#B9B1B5"/>
<path transform="translate(1082,333)" d="m0 0 3 4-3 5-12 5h-2v-8z" fill="#FB6C5C"/>
<path transform="translate(1274,271)" d="m0 0h2l-2 4-7 8h-2l-2 4-10 13h-2v-3h2l1-4 6-10h2l2-5 5-3h2v-2h3z" fill="#FF6F6A"/>
<path transform="translate(1743,634)" d="m0 0h1v14l-5 18-4 9-6 9-4 2 6-9 11-33z" fill="#B9B1B5"/>
<path transform="translate(603,787)" d="m0 0 2 3 1 3 2 1 3 14 1 5 1 34-2-3-1-25-1-12h-2l-4-16z" fill="#C0BABC"/>
<path transform="translate(1743,382)" d="m0 0 3 3v6l-2 5 1 7v12h-2l1 9-4-5 1-7 1-29z" fill="#0093FF"/>
<path transform="translate(1171,348)" d="m0 0 2 3 1 11-2 1-2 9-2-3-2-9v-11l4 2z" fill="#FD6E69"/>
<path transform="translate(1117,245)" d="m0 0 2 1-1 7-6 9-8 11-2-1 5-9 8-11-7 4 2-6 3-3z" fill="#FF6F6A"/>
<path transform="translate(808,601)" d="m0 0h7v1l-8 2-12 7-16 12-9 7h-2v-2l6-5 4-4 5-3h2v-2h3v-2l5-2 5-5 7-3z" fill="#B9B1B5"/>
<path transform="translate(469,410)" d="m0 0 3 1-1 2-13 5-13 2-9 3 2-4 10-4 16-3z" fill="#107CC2"/>
<path transform="translate(1096,185)" d="m0 0h3v2l-17 8-13 9-10 8-4 4-2-1 5-6 10-8 14-9z" fill="#BC6165"/>
<path transform="translate(556,812)" d="m0 0 1 4-1 3v22l6 16v2l2 1-1 2h2l-1 3-2-1-5-12-4-11v-20z" fill="#C2BDBF"/>
<path transform="translate(1567,379)" d="m0 0h2l5 12 4 6 8 7 9 6-3 1-11-6-8-9-3-5-3-9z" fill="#C1BBBD"/>
<path transform="translate(1106,661)" d="m0 0 3 2v17l-1 23-1 13h-1z" fill="#0093FF"/>
<path transform="translate(1336,347)" d="m0 0h1l1 21 7 8 5 6 2 1v3l-4-2-11-10-2-4v-14z" fill="#BC7F83"/>
<path transform="translate(1608,271)" d="m0 0h2l-1 5-8 15-1 3h-2l-2-9z" fill="#F36D60"/>
<path transform="translate(173,222)" d="m0 0 7 1 10 1v1l-15 1-7 4-13 11-8 7-4 2 6-7 14-13 5-5z" fill="#B9B1B5"/>
<path transform="translate(1505,227)" d="m0 0 4 2-10 9-8 8-2-4 6-8z" fill="#F56A5A"/>
<path transform="translate(1531,498)" d="m0 0 4 4 2 5 2 15v13l-2 9-4 6-3 3-2-1 6-7 2-7v-18l-3-17z" fill="#BD5459"/>
<path transform="translate(1568,684)" d="m0 0h1l2 7v9l-1 2v10h-3l-1-7v-19h2z" fill="#0191FB"/>
<path transform="translate(1374,378)" d="m0 0 3 1 1 5 3 1 6 10 2 3-3 2-8-7-4-10h2v-2h-2z" fill="#FB6C5B"/>
<path transform="translate(1446,757)" d="m0 0 3 1v8l-5 12-3-1 1-9 3-10z" fill="#028FF7"/>
<path transform="translate(509,611)" d="m0 0h7l6 3-3 1-9-1-4 3-1 9 3 2 19 1v1h-24l-1-1v-11l5-6z" fill="#B9B1B5"/>
<path transform="translate(1224,807)" d="m0 0h6l8 5 7 2 11 1v1h-13l-10-3-2-1h-12l-8 1 2-2z" fill="#B9B1B5"/>
<path transform="translate(350,648)" d="m0 0v3l-7 7-7 8-5 4-2 1h-8l-10-5 2-2 11 4 6-1 8-6 11-12z" fill="#B9B1B5"/>
<path transform="translate(1239,639)" d="m0 0 3 3 1 5-2 9-1 52h-1z" fill="#0093FF"/>
<path transform="translate(634,322)" d="m0 0 1 4-10 27-2 5v5l1 3h16v1l-14 1-4-1-2-6 9-27z" fill="#B9B1B5"/>
<path transform="translate(1129,303)" d="m0 0v3l-9 9-7 8-5 2v-2h-3v-2l11-7 11-9z" fill="#F0685A"/>
<path transform="translate(1369,231)" d="m0 0 2 1-1 8-5 6-2 4-4 2 3-9 1-2v-7l5-1z" fill="#F96B5B"/>
<path transform="translate(1389,656)" d="m0 0 6 1 8 6 1 3-4 1-13-7v-3z" fill="#FEFEFE"/>
<path transform="translate(1747,362)" d="m0 0h3v9l-2 8-3 3h-2l1-8 2-11z" fill="#038EF6"/>
<path transform="translate(1146,317)" d="m0 0h5l9 4 2 2 2-1 2 3-1 7-7-6-9-7z" fill="#C0BBBD"/>
<path transform="translate(672,112)" d="m0 0h22v1l-9 1 2 6-3 1-13-7z" fill="#F86B5C"/>
<path transform="translate(738,306)" d="m0 0 1 2-6 8-7 9-13 13-2-1 12-13 11-13z" fill="#BC676B"/>
<path transform="translate(1513,261)" d="m0 0h2l-2 5-7 10-4 7-3-1-4 2 6-8 11-14z" fill="#ED675D"/>
<path transform="translate(1646,357)" d="m0 0 10 3 7 3 7 8 2 6h-2l-6-10-5-3h-13l-1-2z" fill="#BC777C"/>
<path transform="translate(1821,252)" d="m0 0 1 3-7 15-4 9-3 7h-2l1-5 7-17 6-11z" fill="#FF6F6A"/>
<path transform="translate(613,878)" d="m0 0h3l-1 5-5 4-6 2h-12v-2l-2-1 14-1 7-3z" fill="#BFBABC"/>
<path transform="translate(674,430)" d="m0 0h3v2l-8 2-15 2h-25v-1l18-1z" fill="#BE7F83"/>
<path transform="translate(1642,329)" d="m0 0h1l-1 7-1 6-1 10h-3l-2 8-2 3 1-7 4-17z" fill="#038EF6"/>
<path transform="translate(1478,307)" d="m0 0v3l-3 5h-2l-1 5-4 4-6 3 1-4 10-13z" fill="#FA6C5C"/>
<path transform="translate(1565,692)" d="m0 0h1l1 15 2 6v18h-2l-2-11z" fill="#038EF5"/>
<path transform="translate(1409,761)" d="m0 0 5 1-1 6-3 3-4 2h-5l1-4 5-4z" fill="#0190FB"/>
<path transform="translate(1115,180)" d="m0 0h16l5 1-2 2h-18l-14 3-4-1 3-2z" fill="#BC797E"/>
<path transform="translate(1532,383)" d="m0 0 1 3-12 16-3 3 1-7 5-8 6-4z" fill="#DE7070"/>
<path transform="translate(573,877)" d="m0 0 11 5 6 1h19l-1 2-4 1h-15l-9-2-7-5z" fill="#0C84CA"/>
<path transform="translate(1472,375)" d="m0 0h2l7 13 1 2-4 1-6-7-2-7z" fill="#F76B5B"/>
<path transform="translate(1957,355)" d="m0 0h2l-3 11-7 19-2-2 1-5 3-7 1-1 1-8h2l1-6z" fill="#0B83E2"/>
<path transform="translate(1463,338)" d="m0 0h1l-1 10-2 10-2-3-1-6 1-2-4 2 2-4z" fill="#BFB9BB"/>
<path transform="translate(1499,281)" d="m0 0 2 1-2 6-4 9-3-1-1-5 2-5z" fill="#F66A5B"/>
<path transform="translate(1704,509)" d="m0 0 3 4 8 10 8 7-2 1-9-6-7-8-2-6z" fill="#BFB9BC"/>
<path transform="translate(1492,219)" d="m0 0 2 4-4 8-2 1-2 5h-2l-1-3 6-13z" fill="#F76B5B"/>
<path transform="translate(401,655)" d="m0 0 1 2-3 7-1 8-2-1-1-3-5 2-4 4-2-1 14-14z" fill="#BA9397"/>
<path transform="translate(1135,315)" d="m0 0 5 1-2 4-5 5-3 2-2-3 1-4 2-3z" fill="#C1BBBE"/>
<path transform="translate(1113,399)" d="m0 0m-1 1 1 3-18 10-12 5-2-1 16-8z" fill="#BC676C"/>
<path transform="translate(1657,307)" d="m0 0 2 2-7 15-2 4-3-1 7-18z" fill="#F76B5C"/>
<path transform="translate(1371,242)" d="m0 0 1 3-8 17-5 12-3 2 3-9 11-24z" fill="#BC696D"/>
<path transform="translate(1812,187)" d="m0 0 1 2-9 19-4 2 3-9 6-12z" fill="#F4695C"/>
<path transform="translate(382,678)" d="m0 0v3 5l2 1h9l3-2-1 5-7 1-9-3-2-2 1-4z" fill="#C2BDBF"/>
<path transform="translate(190,226)" d="m0 0 4 2 2 3v11l-4 10h-3l1-4 3-6v-10l-1-4h-2z" fill="#0D82C8"/>
<path transform="translate(1238,204)" d="m0 0m-1 1m-2 1 2 1-9 10-11 10-1-3 14-13z" fill="#BC6B70"/>
<path transform="translate(1745,379)" d="m0 0h3l-2 39h-1l-1-15-1-8 2-4v-6l-1-3z" fill="#0C81DD"/>
<path transform="translate(1985,276)" d="m0 0h2l-3 9-6 16-2-1 2-9 5-13z" fill="#0B83E3"/>
<path transform="translate(719,126)" d="m0 0 11 2-2 4-3 8-2 1v-6l-4-7z" fill="#BEB8BB"/>
<path transform="translate(1141,292)" d="m0 0 1 3-9 10-7 6-2-1 11-12 4-5z" fill="#FB6C5B"/>
<path transform="translate(1136,369)" d="m0 0v3l-4 6-6 5-5 5h-3l2-4 15-14z" fill="#F3695C"/>
<path transform="translate(1486,311)" d="m0 0 2 3-5 15-3 2-1-5 6-14z" fill="#F76B5C"/>
<path transform="translate(1309,211)" d="m0 0 5 5 5 2 3 3-3 5-3-1-6-10-2-3z" fill="#F46C5F"/>
<path transform="translate(583,547)" d="m0 0 2 1-12 13-7 5-2-1 7-8 10-8z" fill="#0F7EC4"/>
<path transform="translate(1445,357)" d="m0 0v3l-7 11-3 7-1 2h-2l1-7 8-12z" fill="#F26D69"/>
<path transform="translate(1276,350)" d="m0 0h2l-2 10h-2v3l-6 2 1-4 6-10z" fill="#F2695C"/>
<path transform="translate(1465,270)" d="m0 0h2l-2 4-8 11h-2v-2l-2-1 6-8h4z" fill="#F1564B"/>
<path transform="translate(901,671)" d="m0 0h1v16l-1 6-1 22h-1v-31z" fill="#0093FF"/>
<path transform="translate(995,360)" d="m0 0 3 1 3 6 1 5 3 6v4h-2l-6-13z" fill="#EE7976"/>
<path transform="translate(1454,347)" d="m0 0 1 2-11 16-6 9-1-3 14-21z" fill="#BC666B"/>
<path transform="translate(1045,225)" d="m0 0v3l-8 10-1 2h-2l-2 5-4 6h-2l2-5 12-16z" fill="#FF6F6A"/>
<path transform="translate(176,221)" d="m0 0h12l7 3 2 2-1 3-2-2-4-1v-2h-14z" fill="#C1BCBE"/>
<path transform="translate(345,650)" d="m0 0 2 2-12 13-5 3-3-1 12-11z" fill="#C2BDBF"/>
<path transform="translate(504,766)" d="m0 0m-2 1 4 2-16 7-9 1 3-3 10-3z" fill="#0F7EC4"/>
<path transform="translate(1358,642)" d="m0 0 4 1-2 5-3 5-4-2 1-7z" fill="#0191FC"/>
<path transform="translate(603,475)" d="m0 0 1 2v9l1 9v3l-4-6-1-6v-8h2z" fill="#0C83C9"/>
<path transform="translate(940,189)" d="m0 0 4 1 7 3 6 3 1 7-8-6-10-7z" fill="#C1BBBD"/>
<path transform="translate(1175,295)" d="m0 0 1 2-5 17-1 4-3 1 2-11 4-12z" fill="#BC686D"/>
<path transform="translate(785,660)" d="m0 0 3 3v7l-1 3-1 24h-1z" fill="#0093FF"/>
<path transform="translate(1960,358)" d="m0 0 1 2-4 12-3 7-2-2 1-5 4-12z" fill="#F76B5D"/>
<path transform="translate(1329,334)" d="m0 0 1 3-2 11-1 20h-1l-1-26h2v-5z" fill="#0E7ED6"/>
<path transform="translate(1871,92)" d="m0 0 2 3-4 4h-2l-2 5-6 5-2-1 12-15z" fill="#F66A5E"/>
<path transform="translate(1152,351)" d="m0 0h2l-1 4-7 8-7 6-2-1 9-9z" fill="#F56A5C"/>
<path transform="translate(1357,218)" d="m0 0 4 1 8 7 4 7v9h-2l-1-10-8-10-5-3z" fill="#BC7479"/>
<path transform="translate(1152,365)" d="m0 0v3l-12 13-8 7v-3z" fill="#BC6468"/>
<path transform="translate(1948,188)" d="m0 0 7 1 19 2v1h-24l-6 1 2-4z" fill="#BEB8BB"/>
<path transform="translate(706,71)" d="m0 0 12 2 8 2-1 2-10-1-15-3v-1z" fill="#BC6E72"/>
<path transform="translate(822,603)" d="m0 0 6 1 6 4 13-1-2 2-8 3-5-1-5-5-5-2z" fill="#BD5459"/>
<path transform="translate(667,545)" d="m0 0h2l-2 4-5 4-5 2h-17v-1h16v-2l8-4z" fill="#098AD0"/>
<path transform="translate(1747,542)" d="m0 0 15 5 8 2v2l-7-1-18-6z" fill="#BC6E73"/>
<path transform="translate(1739,495)" d="m0 0 6 1 5 4 1 4-5-1-7-6z" fill="#FB6C5C"/>
<path transform="translate(1950,380)" d="m0 0h3l-2 10-5 5-1-3z" fill="#F76B5C"/>
<path transform="translate(1308,241)" d="m0 0h2l-1 5-4 6-3-1 1-7z" fill="#F46C5E"/>
<path transform="translate(868,221)" d="m0 0 1 3-4 10-3 11-3 1 1-6z" fill="#FF6F6A"/>
<path transform="translate(1176,224)" d="m0 0h1l1 8-1 6h-2v9l-1 3h-2l1-8z" fill="#BFBABC"/>
<path transform="translate(1096,185)" d="m0 0h3v2l-17 8-4 3-2-1 6-5z" fill="#BC5F64"/>
<path transform="translate(1457,340)" d="m0 0 1 2-11 15h-2l1-4 8-10z" fill="#FF6F6A"/>
<path transform="translate(1066,304)" d="m0 0 7 2v2l-8 5h-2l1-6z" fill="#EF685C"/>
<path transform="translate(623,456)" d="m0 0 2 1-6 8-5 4-10 3 3-3 8-4z" fill="#B9B1B5"/>
<path transform="translate(1852,359)" d="m0 0h6l2 3-7 6h-2z" fill="#EC685E"/>
<path transform="translate(1335,209)" d="m0 0 7 1 15 6 2 2-7-1-14-5v-2z" fill="#BC7F84"/>
<path transform="translate(646,457)" d="m0 0h2l5 7 16 8-1 2-5-3-9-3-8-9z" fill="#B9B1B5"/>
<path transform="translate(606,498)" d="m0 0 2 1 1 3 2 17 1 4-4 4-2-1 2-2-1-21z" fill="#0298DD"/>
<path transform="translate(1883,290)" d="m0 0 2 3-2 6-5 9-2 1 1-5z" fill="#C0BABD"/>
<path transform="translate(570,263)" d="m0 0 2 3-4 11-4 8-2-1z" fill="#DC7D7D"/>
<path transform="translate(711,418)" d="m0 0m-3 1 5 1-3 2-13 5h-2l1-3z" fill="#BC666A"/>
<path transform="translate(1170,372)" d="m0 0 3 3 3 7 4 9-1 2-5-8-4-10z" fill="#FF6F6A"/>
<path transform="translate(1571,269)" d="m0 0 1 3-8 10-3 2 1-4 6-9z" fill="#D86562"/>
<path transform="translate(1245,207)" d="m0 0 1 2 2 1-10 8-2-3 7-7z" fill="#F56A5C"/>
<path transform="translate(1325,339)" d="m0 0 2 1v2h-2l1 16-3-1v-13z" fill="#0093FF"/>
<path transform="translate(997,305)" d="m0 0h2l-2 12-1-3-7 4v-3l5-4z" fill="#BC565B"/>
<path transform="translate(627,127)" d="m0 0h2l-1 5-2 6-5-5 1-3z" fill="#F2695C"/>
<path transform="translate(1225,360)" d="m0 0h5v4l-5 3-3-1 1-4z" fill="#F2695A"/>
<path transform="translate(1339,300)" d="m0 0 3 1-2 10-5 3 3-11z" fill="#F3695D"/>
<path transform="translate(1894,263)" d="m0 0 1 4-4 8-3 1v-5z" fill="#E66563"/>
<path transform="translate(882,190)" d="m0 0 2 1-9 16-3 6-1-3 8-16z" fill="#BC6469"/>
<path transform="translate(1565,692)" d="m0 0h1l1 15 1 5-2 8h-1z" fill="#0A84E6"/>
<path transform="translate(825,386)" d="m0 0 4 1 2 5 2 4-4-2-5-2z" fill="#FB6C5B"/>
<path transform="translate(687,352)" d="m0 0 2 1-3 3-10 5-3-1 3-3z" fill="#BC676C"/>
<path transform="translate(548,320)" d="m0 0 2 1-3 10-5 9-2-1 4-8z" fill="#DE7A79"/>
<path transform="translate(1443,300)" d="m0 0h2l-2 5-5 7h-2l1-5 3-5z" fill="#D96864"/>
<path transform="translate(173,222)" d="m0 0 7 1 10 1v1l-20 1h-3z" fill="#BCB5B8"/>
<path transform="translate(738,306)" d="m0 0 1 2-6 8-5 5-2 1 2-4z" fill="#BC7277"/>
<path transform="translate(1210,238)" d="m0 0 1 2-8 11-2 3h-2l2-5 7-9z" fill="#FF6F6A"/>
<path transform="translate(1e3 220)" d="m0 0h1l1 12h-3l-1 6h-1v-7z" fill="#0290F8"/>
<path transform="translate(2012,214)" d="m0 0 4 2v5l-3 5-3-1z" fill="#F66A5C"/>
<path transform="translate(520,758)" d="m0 0m-1 1m-2 1h2l-1 3-10 5-4-1z" fill="#117AC1"/>
<path transform="translate(586,645)" d="m0 0 4 2 5 3-1 3-5 2z" fill="#B9A1A6"/>
<path transform="translate(1163,226)" d="m0 0h1v6l-1 4-1 7-3 1v-5l1-1 2-11z" fill="#0092FD"/>
<path transform="translate(1237,757)" d="m0 0h3l-1 5-7 2-1-2 3-3z" fill="#038EF6"/>
<path transform="translate(355,854)" d="m0 0 3 1 5 5 13 2v1h-12l-7-4z" fill="#0F7FC5"/>
<path transform="translate(1082,341)" d="m0 0m-3 1 5 1-3 2-6 3h-5l2-3z" fill="#BC6A6E"/>
<path transform="translate(1286,186)" d="m0 0 7 1 9 6-3 1-7-4-6-3z" fill="#BC8084"/>
<path transform="translate(1818,175)" d="m0 0v3l-4 9-4 2 2-6 4-7z" fill="#FF6E5F"/>
<path transform="translate(1289,622)" d="m0 0 2 3 2 14-2 1-2-10z" fill="#B9B1B5"/>
<path transform="translate(1169,376)" d="m0 0 1 2h2l7 14-1 2-7-10-2-5z" fill="#BC7075"/>
<path transform="translate(1226,339)" d="m0 0 4 2-3 9-2 1-1-4z" fill="#F56A5B"/>
<path transform="translate(1962,335)" d="m0 0 2 3-1 7-1 3-3-1 1-6z" fill="#068AEE"/>
<path transform="translate(1971,323)" d="m0 0h1l-1 9-2 3-2-1 1-7 1-3z" fill="#F76B5C"/>
<path transform="translate(1760,311)" d="m0 0 2 4-1 8-2 3-1-4v-6z" fill="#068AEF"/>
<path transform="translate(953,222)" d="m0 0 2 3-6 7-3-1 1-4z" fill="#F76B5B"/>
<path transform="translate(1911,332)" d="m0 0 1 3-4 10-4 1 2-6z" fill="#D66462"/>
<path transform="translate(1448,292)" d="m0 0 2 1-2 4-2 3-5 2 2-5z" fill="#F06B5E"/>
<path transform="translate(602,780)" d="m0 0h2l3 10-1 4-2-4v-3h-2z" fill="#C1BBBE"/>
<path transform="translate(1961,348)" d="m0 0 3 1-2 9-4 2 2-9z" fill="#F2695C"/>
<path transform="translate(945,274)" d="m0 0h4l3 6-6-1-3-1z" fill="#F2695C"/>
<path transform="translate(1307,198)" d="m0 0 3 1 5 5 5 3-1 2-5-2-7-8z" fill="#BD878B"/>
<path transform="translate(480,406)" d="m0 0 4 1-3 1-1 2-9 2v-3z" fill="#0D82C8"/>
<path transform="translate(1095,401)" d="m0 0h3l-2 6-6-1-1-2z" fill="#F66A5C"/>
<path transform="translate(1957,355)" d="m0 0h2l-3 11h-3v-4h2l1-6z" fill="#0A84E5"/>
<path transform="translate(1454,347)" d="m0 0 1 2-8 12-1-4 7-9z" fill="#C06B6F"/>
<path transform="translate(1565,336)" d="m0 0 2 1-5 7-4 7-2 1 1-4z" fill="#BE6469"/>
<path transform="translate(1070,202)" d="m0 0m-1 1v3h-2l-1 3h-2v2l-5 3-2-1 9-8z" fill="#FF6F6A"/>
<path transform="translate(1126,389)" d="m0 0m-1 1m-1 1m-1 1 1 3-11 7 2-4z" fill="#BC6065"/>
<path transform="translate(1758,319)" d="m0 0 1 3-1 5-3 6-1-4 3-9z" fill="#0093FF"/>
<path transform="translate(1056,211)" d="m0 0m-1 1m-1 1m-1 1m-2 1h2l-2 4-6 5v-3z" fill="#BC6E73"/>
<path transform="translate(759,138)" d="m0 0 7 5v4l-4-2-1-3h-2z" fill="#FC6D5C"/>
<path transform="translate(1116,387)" d="m0 0 1 2-5 6-3 1v-4z" fill="#F3695C"/>
<path transform="translate(1637,347)" d="m0 0 2 3v2h-2l-2 8-2 3 1-7z" fill="#0093FF"/>
<path transform="translate(1764,301)" d="m0 0 2 1-2 10-2 4-1-5 2-5z" fill="#0C81DE"/>
<path transform="translate(1990,273)" d="m0 0 1 2-4 9-2-1 1-5 2-4z" fill="#F76B5D"/>
<path transform="translate(837,797)" d="m0 0h4l-1 4-1 1h-6z" fill="#0190FB"/>
<path transform="translate(491,772)" d="m0 0h2v3l-8 2-4-1 3-2z" fill="#0D82C8"/>
<path transform="translate(1858,334)" d="m0 0h3l-1 8-4 1z" fill="#F0685C"/>
<path transform="translate(1973,312)" d="m0 0 3 2-2 6-4 2z" fill="#F2695D"/>
<path transform="translate(1560,282)" d="m0 0 1 2 2 1-5 6h-2l1-5z" fill="#1475BC"/>
<path transform="translate(1513,261)" d="m0 0h2l-2 5-4 6-2-4z" fill="#BB767B"/>
<path transform="translate(672,112)" d="m0 0h22v1l-19 1-3 1z" fill="#BD5459"/>
<path transform="translate(1248,394)" d="m0 0m-1 1 1 3-10 7v-3z" fill="#BC6D72"/>
<path transform="translate(759,271)" d="m0 0 1 3-3 6-4 2 2-6 2-4z" fill="#EA7572"/>
<path transform="translate(583,230)" d="m0 0 1 3-3 10-2 3-2-1z" fill="#C67578"/>
<path transform="translate(1925,217)" d="m0 0h2l-1 5-2 3-4-1z" fill="#B9B1B5"/>
<path transform="translate(1262,188)" d="m0 0h5l-3 2-5 4-4 1v-3z" fill="#BD898D"/>
</svg>
